<mxfile host="Electron" agent="Mozilla/5.0 (Windows NT 10.0; Win64; x64) AppleWebKit/537.36 (KHTML, like Gecko) draw.io/25.0.2 Chrome/128.0.6613.186 Electron/32.2.5 Safari/537.36" version="25.0.2">
  <diagram name="Page-1" id="QecgUJXpY4AKDSv39vpL">
    <mxGraphModel dx="956" dy="163" grid="0" gridSize="10" guides="1" tooltips="1" connect="1" arrows="1" fold="1" page="0" pageScale="1" pageWidth="827" pageHeight="1169" math="0" shadow="0">
      <root>
        <mxCell id="0" />
        <mxCell id="1" parent="0" />
        <mxCell id="DTfyCFZ58FffVUjiNzRJ-1" value="" style="shape=image;verticalLabelPosition=bottom;labelBackgroundColor=default;verticalAlign=top;aspect=fixed;imageAspect=0;image=https://www.researchgate.net/publication/340034692/figure/fig1/AS:870930318385152@1584657377357/Confusion-matrix-and-performance-equations-The-confusion-matrix-included-four.png;clipPath=inset(0% 40.67% 0% 0%);" vertex="1" parent="1">
          <mxGeometry x="360" y="436.77" width="590" height="331.46" as="geometry" />
        </mxCell>
        <mxCell id="DTfyCFZ58FffVUjiNzRJ-2" value="" style="rounded=1;whiteSpace=wrap;html=1;fillColor=none;strokeColor=#f20707;strokeWidth=2;" vertex="1" parent="1">
          <mxGeometry x="760" y="560" width="160" height="185" as="geometry" />
        </mxCell>
        <mxCell id="DTfyCFZ58FffVUjiNzRJ-4" value="&lt;b&gt;&lt;u&gt;&lt;font color=&quot;#f50000&quot;&gt;False positive rate&lt;/font&gt;&lt;/u&gt;&lt;br&gt;Want high&amp;nbsp;&lt;/b&gt;&lt;b style=&quot;background-color: initial;&quot;&gt;TN&amp;nbsp;&lt;/b&gt;&lt;div&gt;&lt;b&gt;&quot;We said apple,&amp;nbsp;&lt;/b&gt;&lt;/div&gt;&lt;div&gt;&lt;b&gt;but it was orange&quot;&lt;/b&gt;&lt;/div&gt;&lt;div&gt;&lt;b&gt;= We want low FPR&lt;/b&gt;&lt;/div&gt;&lt;div&gt;&lt;b&gt;&lt;br&gt;&lt;/b&gt;&lt;/div&gt;" style="text;html=1;align=center;verticalAlign=middle;resizable=0;points=[];autosize=1;strokeColor=none;fillColor=none;fontSize=15;" vertex="1" parent="1">
          <mxGeometry x="762.5" y="789" width="155" height="120" as="geometry" />
        </mxCell>
        <mxCell id="DTfyCFZ58FffVUjiNzRJ-7" value="" style="rounded=1;whiteSpace=wrap;html=1;fillColor=none;strokeColor=#4400ff;strokeWidth=2;" vertex="1" parent="1">
          <mxGeometry x="560" y="560" width="370" height="85" as="geometry" />
        </mxCell>
        <mxCell id="DTfyCFZ58FffVUjiNzRJ-9" value="&lt;u&gt;&lt;b&gt;&lt;font color=&quot;#0c09ec&quot;&gt;Precision&lt;/font&gt;&lt;/b&gt;&lt;/u&gt;&lt;div&gt;&lt;b&gt;Want low FP&lt;/b&gt;&lt;/div&gt;&lt;div&gt;&lt;span style=&quot;font-weight: bold;&quot;&gt;&quot;Of those we said were apples,&amp;nbsp;&lt;/span&gt;&lt;/div&gt;&lt;div&gt;&lt;span style=&quot;font-weight: bold;&quot;&gt;how many were apples&quot;&lt;br&gt;&lt;/span&gt;&lt;/div&gt;" style="text;html=1;align=center;verticalAlign=middle;resizable=0;points=[];autosize=1;strokeColor=none;fillColor=none;fontSize=15;" vertex="1" parent="1">
          <mxGeometry x="1004" y="465" width="243" height="84" as="geometry" />
        </mxCell>
        <mxCell id="DTfyCFZ58FffVUjiNzRJ-23" style="edgeStyle=orthogonalEdgeStyle;rounded=0;orthogonalLoop=1;jettySize=auto;html=1;strokeColor=#06f92f;" edge="1" parent="1" source="DTfyCFZ58FffVUjiNzRJ-10">
          <mxGeometry relative="1" as="geometry">
            <mxPoint x="650" y="780" as="targetPoint" />
          </mxGeometry>
        </mxCell>
        <mxCell id="DTfyCFZ58FffVUjiNzRJ-10" value="" style="rounded=1;whiteSpace=wrap;html=1;fillColor=none;strokeColor=#00F208;strokeWidth=2;" vertex="1" parent="1">
          <mxGeometry x="560" y="560" width="180" height="190" as="geometry" />
        </mxCell>
        <mxCell id="DTfyCFZ58FffVUjiNzRJ-12" value="&lt;b&gt;&lt;u&gt;&lt;font color=&quot;#1f450d&quot;&gt;Recall&lt;/font&gt;&lt;/u&gt;&lt;br&gt;&lt;font color=&quot;#000000&quot;&gt;Want low FN:&lt;/font&gt;&lt;/b&gt;&lt;div&gt;&lt;b&gt;&lt;font color=&quot;#000000&quot;&gt;&quot;of ALL apples in&amp;nbsp;&lt;/font&gt;&lt;/b&gt;&lt;/div&gt;&lt;div&gt;&lt;font color=&quot;#000000&quot;&gt;&lt;b&gt;dataset,&amp;nbsp;&lt;/b&gt;&lt;b style=&quot;background-color: initial;&quot;&gt;how many&amp;nbsp;&lt;/b&gt;&lt;/font&gt;&lt;/div&gt;&lt;div&gt;&lt;font color=&quot;#000000&quot;&gt;&lt;b style=&quot;background-color: initial;&quot;&gt;did we label&amp;nbsp;&lt;/b&gt;&lt;b style=&quot;background-color: initial;&quot;&gt;apple&quot;&lt;br&gt;= we want high Recall&lt;/b&gt;&lt;/font&gt;&lt;/div&gt;" style="text;html=1;align=center;verticalAlign=middle;resizable=0;points=[];autosize=1;strokeColor=none;fillColor=none;fontColor=#23371a;fontSize=15;" vertex="1" parent="1">
          <mxGeometry x="564" y="786" width="173" height="120" as="geometry" />
        </mxCell>
        <mxCell id="DTfyCFZ58FffVUjiNzRJ-21" style="edgeStyle=orthogonalEdgeStyle;rounded=0;orthogonalLoop=1;jettySize=auto;html=1;strokeColor=#FF1717;" edge="1" parent="1" source="DTfyCFZ58FffVUjiNzRJ-2">
          <mxGeometry relative="1" as="geometry">
            <mxPoint x="840" y="782" as="targetPoint" />
          </mxGeometry>
        </mxCell>
        <mxCell id="DTfyCFZ58FffVUjiNzRJ-28" style="edgeStyle=orthogonalEdgeStyle;rounded=0;orthogonalLoop=1;jettySize=auto;html=1;entryX=0;entryY=0.391;entryDx=0;entryDy=0;entryPerimeter=0;strokeColor=#1100fa;" edge="1" parent="1" source="DTfyCFZ58FffVUjiNzRJ-7" target="DTfyCFZ58FffVUjiNzRJ-9">
          <mxGeometry relative="1" as="geometry" />
        </mxCell>
        <mxCell id="DTfyCFZ58FffVUjiNzRJ-32" value="" style="shape=image;verticalLabelPosition=bottom;labelBackgroundColor=default;verticalAlign=top;aspect=fixed;imageAspect=0;image=data:image/png,iVBORw0KGgoAAAANSUhEUgAAAqsAAAIYCAIAAADFJzJ9AAAgAElEQVR4Ae3dCXwUVbr38cra6XQIsmUIIQbCkoALEDCCI0QdxGUQHeQSZhCDKzD3QlxeEUGNXg1ecEYHNSoii4oMGDYVFUWEsMmirBoVZA2oOKJBFhMIOa9YQ03R1Uk6SVXX9usPH62qrj7nOd+ntf7pJUiCGwIIIIAAAgi4T0By35JZMQIIIIAAAggIEgBPAgQQQAABBNwoQAJwY9dZMwIIIIAAAiQAngMIIIAAAgi4UYAE4Maus2YEEEAAAQRIADwHEEAAAQQQcKMACcCNXWfNCCCAAAIIkAB4DiBQd4Hp06dLZ24RERFJSUlDhw7dv39/3Ues+pE5OTkpKSlV3//ve3bv3i1J0vTp02s8s24n5OTknFmxFBUVlZqaeu+99x4+fLhuowX/KL91yfK7d++uZoQtW7YMHTq0VatWHo/H5/N16dJlwoQJhw4dquYh3IWAqwRIAK5qN4vVWUC+Dk2fPv3jjz/+6KOPHnnkEY/H07p166NHj+o8kxBff/31xo0baxy2rKzs448//v7772s8s24n5OTkeL3ej3+7vffee7fddpskSVdeeWXdRgv+UbVNAC+99FJkZOR5551XUFCwbNmyDz74YPz48a1bt77hhhuCn5QzEXC2AAnA2f1ldcYKyAlgw4YNyjQPPfSQJEkzZ85Ujigbx44dU7btu5GTk+Pz+dT1X3755ZIk7dq1S31Q9+1aJYA1a9ZERERcffXVZWVl6krKy8vffPNN9ZEgt48fP15ZWRnkyZyGgF0ESAB26RR1WlFAmwDeeecdSZLy8/OFEPLFcuvWrVdeeWVcXFz37t2FEOXl5Y899lhaWlp0dHTTpk2HDh3q9/P666+/3r17d99vt06dOr388svyyv3eBXjjjTcyMzPj4+O9Xm/r1q1vueUW+TS/K6UQYuXKlVdccUVcXJzX6+3Ro8eiRYsUSrn+jz76aPjw4U2aNGncuPGf/vSnAwcOKCdoN7QJ4L777pMk6eOPP1ZOnj17dvfu3WNjY30+X58+ffxeuli7dm3fvn0bN27s8XhSU1Nzc3PlB+7YsWPo0KFt27b1er0tWrTo27fv1q1blTH91iVXXtW7AH379o2MjNy3b5/ycO2GJEl5eXnq4ykpKTk5OfIRefz333//lltuadq0qSRJ//znPyVJ+vDDD9UPef755yVJ2rJli3xww4YN1113XaNGjTweT+fOnefMmaM+mW0ErCZAArBaR6jHTgLaBDBp0iRJkl566SU5AURFRf36PvQTTzyxdOnS999//9SpU1dffbXP53v00UeXLFny8ssvJyUldezY8fjx4/Ky5ZcQ+vfvX1hY+MEHHzz11FMPPfSQfJc6AaxZsyYsLGzQoEHvvvvuRx99NH369CFDhsin+V0ply9fHhUV1bVr1zlz5ixcuLBPnz5hYWGzZ8+WT5brT01NHTly5Pvvv//yyy83atTo8ssvl+8N+E9tAhgwYEBkZOTBgwfl8/Pz88PCwm699dZFixbNnz+/R48ePp/v888/l+9dvHhxVFTUhRdeOGPGjI8++mjatGmDBg2S7yoqKrr33nvnzp1bVFS0YMGCG264wev1fvnll/K9fuuqJgFUVFTExsZefPHF8gOr+mcwCSApKenOO+9877335s6dW1ZWlpCQMHjwYPWAmZmZGRkZ8pGPPvooOjq6Z8+ec+bMWbx48dChQw39QIa6DLYRqJsACaBubjwKgdMC8nVo7dq1J0+ePHLkyKJFi5o1a9agQYPvvvtOTgCSJE2bNk3Bkn+OnDdvnnJkw4YNkiQ9//zzQohdu3ZFRET4XWOUM9UJ4G9/+5skSaWlpcq9yobflbJ79+4JCQlHjhyRT6ioqDj//PNbtmwpv6Yt1//Xv/5VefjEiRMlSfr222+VI34bcgI4+dvthx9+eOGFF8LDw8eOHSuftm/fvsjIyJEjRyqPOnLkSPPmzQcOHCgfafPb7ZdfflFOCLhRUVFx4sSJdu3a3X333fIJfuuqJgF89913kiQpwSLg+EKIYBLAzTffrH74Pffc4/V6Ffbi4mJJkp599ln5nPT09C5dupw8eVJ5SN++fRMTE0+dOqUcYQMBSwmQACzVDoqxmYB8HVI+Gy9J0gUXXLBq1Sp5GfLH5tWfkx88ePA555xz4sQJ+Qoq/1O5QE6ePFmSpDVr1gRUUCeAoqKiX8/s06fPnDlz/L56oL5SHj16NCwsTH2BF0JMmDBBkqQvvvhCSTCLFy9WZly8eLEkSWvXrhVCnDp1SqmzoqJCvSj1kv/85z8rD58yZYokSRs2bFAeePLkyezs7ISEBCHEV199JUnS+PHjlfPVGydPnszPz+/QoUNUVJQy/tVXXy2fo16XUnnAdwF0TAB+Hxr47LPPJEmaPHmyXNJ9993n8XjkLxfs2LFDkqS//e1v6oXL7xEUFxerl8k2AtYRIAFYpxdUYj8BOQG8+uqrGzZs2LRp0zfffKNeQ05OTmxsrPpI7969lWubeuOKK64QQjz++OOSJFX17rU6AQghFi5ceMUVV3g8HkmSzjvvvFmzZskTqa+UJSUlkiQ99thj6hpee+01SZLkmCLXr/4k47JlyyRJWrZs2a8PycvLU4pUvogofxdgw2+3t99++7LLLpMk6YknnpCnkJegPErZCA8PF0KsWrVKkqRXX31VXY+yPXLkyPDw8AceeGDx4sXr1q3bsGFDp06dsrKy5BPU66o+Aej4LsD69euV8uSNiy66SP48R0VFRWJiovLahrw0Zb3qjRUrVvgNwi4CFhEgAVikEZRhSwHtFVS9DO1b5oMGDWrSpIl8+VT/U363O/jXAJRZysrKli9fftVVVykvHqivlEePHg0PDw/4GoA8o7Z+dQI4cOCAUqTyoTy/RZWVlZ133nkxMTFycHnxxRclSZo7d67yQGWjxtcAGjVqNHToUGVpQoikpKQ6JAAhxHXXXRcZGVlSUqIezW/b4/GMGTNGfTAuLs7vk4DqbCSfqfxYv2jRIkmS3nvvPfn4l19+KUnSAw88oKxX2fj555/Vs7CNgHUESADW6QWV2E9AewVVr8HvYimEmDlzpvIau/pMeXv37t0RERHKZ/r8TvB7DUB97+bNmyVJKigo+PXDB+oEIITo0aNH8+bNlU8anjp16oILLvD7HID6OqdOAOoplG3topYvXy5J0p133inPHhkZOWHCBOV8v402bdq0bdvW70t68jmNGzceNmyYcr58ia1bAlC+DVheXq4MKIQ4ceLEW2+9JR9JS0u79tprlXuXLl0qSVKNCeCnn36KiYkZPXr0gAEDkpKS1O/xt2vXTj2gMjIbCFhWgARg2dZQmA0EapsAKioqrrnmmsaNGz/66KPvvffehx9+OGPGjJycnPnz58urlb8LMGDAgHnz5n344YfPPPPMww8/LN+lTgAPPfTQLbfcMnPmzOXLly9cuPDyyy+Pior67LPPtAlA/i7AxRdfXFhY+Oabb1511VXa7wLUMwEIIa699tqoqCj5VwKMHz8+MjJy2LBhCxYsWL58+Zw5c+69915lFfJ3ATp37vzKK68sW7bslVde+ctf/iIv8Oabb/Z4PE8//fTSpUsnTpzYrFmzli1b1i0BCCHk3wh0/vnnFxQULF++fMmSJRMnTmzbtq3yG4Eef/zxsLCwhx56SHZu3759w4YNa0wAv76S8ec//zkhISE6Olr5/KNc/0cffeTxePr06TNr1iz56wzjx48fMGCAfC//RMCCAiQACzaFkmwjUNsEIIQ4efLk3/72t06dOsXExMTFxaWnpw8bNmzHjh3Kml999dWLLrpIvrdLly7K7/dVJ4BFixZdc801SUlJ0dHRCQkJ11577cqVK+UR/F4DUH4fgM/n83q93bt3f/vtt5W5tPXX4TUAIcS2bdvCw8OV30kgh5L4+HiPx5OSkjJgwAD11+g//vjja665pmHDhh6Pp02bNsqn/X/66afbbrstISEhNjb20ksvXblyZdZvt4DrkisP+ElAZXWbN2/Oyck599xzo6Oj5d8K/PDDDyu/faG8vHz06NHJyclerzcrK2vz5s3a3wegzkbKsB988IH8Nv/27duVg/LGli1bBg4cmJCQEBUV1bx58yuuuOLFF1/0O4ddBKwjQAKwTi+oBAEEEEAAgdAJkABCZ81MCCCAAAIIWEeABGCdXlAJAggggAACoRMgAYTOmpkQQAABBBCwjgAJwDq9oBIEEEAAAQRCJ0ACCJ01MyGAAAIIIGAdARKAdXpBJQgggAACCIROwE4J4NSpUyUlJaWlpYe5IYAAAggggEBtBEpLS0tKStS/yNJOCUD+a07Uf+UG2wgggAACCCAQvID678uwUwIoLS2VJKmkpKQ2oYdzEUAAAQQQQOCw/FN0aWmp8jaDnRLA4cOHJUlS/23ryjLYQAABBBBAAIFqBLTXUBJANVzchQACCCCAgEMESAAOaSTLQAABBBBAoFYCJIBacXEyAggggAACDhEgATikkSwDAQQQQACBWgmQAGrFxckIIIAAAgg4RIAE4JBGsgwEEEAAAQRqJUACqBUXJyOAAAIIIOAQARKAQxrJMhBAAAEEEKiVAAmgVlycjAACCCCAgEMESAAOaSTLQAABBBBAoFYCJIBacXEyAggggAACDhEgATikkSwDAQQQQACBWgmQAGrFxckIIIAAAgg4RIAE4JBGsgwEEEAAAQRqJRCiBFBUVNS3b9/ExERJkhYsWFBVicuXL8/IyPB4PK1bt37hhReqOk05rq1euYsNBBBAAAEEEKhGQHsNNeRvB3733XfHjRs3b968ahLArl27YmNjc3Nzi4uLp0yZEhUVNXfu3GpKF0Joq6/+fO5FAAEEEEAAAVlAew01JAEo3NUkgNGjR6enpytnDhs2rHv37spuwA1t9QFP4yACCCCAAAII+Alor6GmJYCePXuOGjVKqW/+/PmRkZEnTpxQjsgbZWVlh8/cSkpKJEk6fPiw3zn13O3aVSQl8cfVAunporCwns8jHo4AAghYWsBCCaBdu3b5+fmK1urVqyVJ+uabb5Qj8kZeXp509k33BJCUJCSJP24XUL0g5fccZBcBBBBwgoC1EsD48eMV1FWrVkmS9O233ypH5A1eA+D1CaMFwsNPp5+kJL+nHrsIIICAowQslACCfBdAza+tXn0v2wjUTUB+EYgEUDc9HoUAAnYR0F5DTfscwOjRozt06KDADR8+nE8CKhpshFKABBBKbeZCAAGzBEKUAI4cObLpt5skSU899dSmTZv27t0rhBgzZsyQIUPkxcvfBrz77ruLi4unTp3KtwHNek4wLwmA5wACCLhBIEQJYNmyZWd/ek/KyckRQuTk5GRlZSnQy5cv79KlS3R0dKtWrfiNQAoLGyEWIAGEGJzpEEDAFIEQJQCD1qat3qCJGNZVAiQAV7WbxSLgWgHtNdTYzwHoC62tXt/xGc2dAiQAd/adVSPgNgHtNZQE4LbnAOv1FyAB+IuwjwACThQgATixq6ypfgIkgPr58WgEELCHAAnAHn2iylAKkABCqc1cCCBglgAJwCx55rWuAAnAur2hMgQQ0E+ABKCfJSM5RYAE4JROsg4EEKhOgARQnQ73uVOABODOvrNqBNwmQAJwW8dZb80CJICajTgDAQTsL0ACsH8PWYHeAiQAvUUZDwEErChAArBiV6jJXAESgLn+zI4AAqERIAGExplZ7CRAArBTt6gVAQTqKkACqKscj3OuAAnAub1lZQgg8B8BEsB/LNhCQBYgAfBMQAABNwiQANzQZdZYOwESQO28OBsBBOwpQAKwZ9+o2kgBEoCRuoyNAAJWESABWKUT1GEdARKAdXpBJQggYJwACcA4W0a2qwAJwK6do24EEKiNAAmgNlqc6w4BEoA7+swqEXC7AAnA7c8A1q8VIAFoTTiCAALOEyABOK+nrKi+AiSA+gryeAQQsIMACcAOXaLG0AqQAELrzWwIIGCOAAnAHHdmtbIACcDK3aE2BBDQS4AEoJck4zhHgATgnF6yEgQQqFqABFC1Dfe4VYAE4NbOs24E3CVAAnBXv1ltMAIkgGCUOAcBBOwuQAKwewepX38BEoD+poyIAALWEyABWK8nVGS2AAkgxB144w2Rni6SknT4k54uCgtDXD7TIWBXARKAXTtH3cYJkACMsw04cnq6kCTd/qSnB5yEgwgg4C9AAvAXYR8BEkAwzwEdf3APDz99+Q8Pr+9rAPI4SUnBlM85CCAgSAA8CRDwFyAB+IsE2tf3B3dJOv1GQD1vNK6egDzcbQIkALd1nPXWLMCFpGYjcfrndV1+cJff/tfl/XsaF0zjOAcBRYAEoFCwgcC/BZx9IdHr1XsLvuTu7Mbx3ycCuguQAHQnZUDbCzj7QqLvq/f1f+lex6eLsxunIxRDISALkAB4JiDgL+DsC4m8uvp/7C4p6fQ795b66p2zG+f/NGUfgXoLkADqTcgAjhNw9oXEwatz8NIc9x8ZC7KEAAnAEm2gCEsJWPBCoteb90lJp790J0mnP8fnvJsFG+c8ZFbkJAESgJO6yVr0EbDghUTfN+91+eqdPta6jmLBxum6PgZDQGcBEoDOoAznAAELXkjkknR5896C79/r9ZyxYOP0WhrjIGCEAAnACFXGtLeABS8kFizJgj1GyYJNoSQrC5AArNwdajNHQMcLiV7v3zv4zXsde6xj43SsiqEQsKwACcCyraEw0wR0vJDo+/69pb58b1p7qp5Yx8ZVPQn3IOAcARKAc3rJSvQS0PFCIg+ly/v3VvvyvV7aOo6jY+N0rIqhELCsAAnAsq2hMNMEdLyQ6DiUaRz2mRht+/SKSi0hQAKwRBsowlICOl5IdBzKUkTWLAZta/aFqiwrQAKwbGsozDQBSTr9O3PkX5sj/811df4nn+ALZRdJAKHUZi4HCJAAHNBElqCzgJIA9NrgE3w6d6iK4UgAVcBwGIHAAiSAwC4cdbOAcuGv84/+6gfyCb6QPZdIACGjZiJnCJAAnNFHVqGngJIA9ByUsYwXIAEYb8wMjhIgATiqnSxGFwESgC6MoR+EBBB6c2a0tQAJwNbto3hDBEgAhrAaPygJwHhjZnCUAAnAUe1kMboIkAB0YQz9ICSA0Jszo60FSAC2bh/FGyJAAjCE1fhBSQDGGzODowRIAI5qJ4vRRYAEoAtj6AchAYTenBltLUACsHX7KN4Qgezs078OKDvbkMEZ1DgBEoBxtozsSAESgCPbyqIQcKMACcCNXWfN9RAgAdQDj4cigICVBEgAVuoGtdhAgARggyZRIgIIBCNAAghGiXMQUARIAAoFGwggYG8BEoC9+0f1IRcgAYScnAkRQMAYARKAMa6M6lgBEoBjW8vCEHCbAAnAbR1nvfUUIAHUE5CHI4CAVQRIAFbpBHXYRIAEYJNGUSYCCNQkQAKoSYj7EThLgARwFgc7CCBgXwESgH17R+WmCJAATGFnUgQQ0F+ABKC/KSM6WoAE4Oj2sjgE3CRAAnBTt1mrDgIkAB0QGQIBBKwgQAKwQheowUYCJAAbNYtSEUCgOgESQHU63IeARoAEoCHhAAII2FOABGDPvlG1aQIkANPomRgBBPQVIAHo68lojhcgATi+xSwQAbcIkADc0mnWqZMACUAnSIZBAAGzBUgAZneA+W0mQAKwWcMoFwEEqhIgAVQlw3EEAgqQAAKycBABBOwnQAKwX8+o2FQBEoCp/EyOAAL6CZAA9LNkJFcIkABc0WYWiYAbBEgAbugya9RRgASgIyZDIYCAmQIkADP1mduGAiQAGzaNkhFAIJAACSCQCscQqFKABFAlDXcggIC9BEgA9uoX1ZouQAIwvQUUgAAC+giQAPRxZBTXCJAAXNNqFoqA0wVIAE7vMOvTWYAEoDMowyGAgFkCJACz5JnXpgIkAJs2jrIRQMBfgATgL8I+AtUKkACq5eFOBBCwjwAJwD69olJLCJAALNEGikAAgfoLkADqb8gIrhIIXQIoKCho1aqVx+PJyMhYsWJFQOWZM2deeOGFXq+3efPmQ4cO/eGHHwKephzUVq/cxQYCCLhNgATgto6z3noKaK+hUj1HDPjw2bNnR0VFTZkypbi4ODc31+fz7d271+/MlStXhoeHT5o0adeuXStXrjzvvPNuuOEGv3P8drXV+53ALgIIuEeABOCeXrNSXQS011BDEkBmZubw4cOVitPT08eMGaPsyhtPPvlkamqqcvCZZ55p2bKlshtwQ1t9wNM4iAACbhAgAbihy6xRRwHtNVT/BFBeXh4RETF//nyl7lGjRvXq1UvZlTdWr14dHR39zjvvVFZWfvfdd7169Ro2bJjfOUKIsrKyw2duJSUlkiQdPnxYexpHEEDAbQIkALd1nPXWUyAUCeDAgQOSJK1evVqpNT8/v3379squslFYWBgXFxcZGSlJUr9+/U6cOKHcpWzk5eVJZ99IAAoOGwi4WYAE4Obus/Y6CIQuAaxZs0ap7/HHH09LS1N25Y3PP/88MTFx4sSJW7ZsWbx48QUXXHDrrbf6ncNrAFoQjiCAgCxAAuCZgECtBEKRAIJ8F+Cmm24aMGCAUv3KlSslSfrmm2+UI9oNbfXacziCAAIuESABuKTRLFMvAe01VP/PAQghMjMzR4wYoRTdoUMH7ScB+/fvP3DgQOWcNWvWSJJ04MAB5Yh2Q1u99hyOIICASwRIAC5pNMvUS0B7DTUkAcjfBpw6dWpxcfFdd93l8/n27Nnz60v6Y8aMGTJkiLyY6dOnR0ZGPv/88zt37ly1alW3bt0yMzOrX6e2+urP514EEHCwAAnAwc1laUYIaK+hhiQAIURBQUFKSkp0dHRGRkZRUZG8mJycnKysLGVhzzzzTMeOHb1eb2Ji4uDBg/fv36/cFXBDW33A0ziIAAJuECABuKHLrFFHAe011KgEoGPRylDa6pW72EAAAbcJkADc1nHWW08B7TWUBFBPUh6OAALmCJAAzHFnVtsKkABs2zoKRwCBswVIAGd7sIdADQIkgBqAuBsBBOwiIElC/pOUJOr/Jz1dFBbaZenUiUBdBEgAdVHjMQggYEEBJQHotZGebsFVUhICugmQAHSjZCAEEDBXQLnw1/8FgPDw0y8nJCWZuyBmR8BYARKAsb6MjgACIRNQEkD9Z+QjBfU3ZATrC5AArN8jKkQAgaAESABBMXESAmcESABnJPg3AgjYXIAEYPMGUn6oBUgAoRZnPgQQMEiABGAQLMM6VYAE4NTOsi4EXCdAAnBdy1lw/QRIAPXz49EIIGAZgezs0x/gz87WoSA+CagDIkNYXoAEYPkWUSACCIRcgAQQcnImNEGABGACOlMigIDFBUgAFm8Q5ekiQALQhZFBEEDAUQIkAEe1k8VUIUACqAKGwwgg4GIBEoCLm++ipZMAXNRslooAAkEKkACChOI0WwuQAGzdPopHAAFDBEgAhrAyqMUESAAWawjlIICABQRIABZoAiUYLkACMJyYCRBAwHYCJADbtYyC6yBAAqgDGg9BAAGHC5AAHN5glvebAAmAJwICCCDgL0AC8Bdh34kCJAAndpU1IYBA/QRIAPXz49H2ECAB2KNPVIkAAqEUIAGEUpu5zBIgAZglz7wIIGBdARKAdXtDZfoJkAD0s2QkBBBwigAJwCmdZB3VCZAAqtPhPgQQcKcACcCdfXfbqkkAbus460UAgZoF9EoAb7wh0tNFUpI+f9LTRWFhzcVzBgJBCpAAgoTiNAQQcJGAXgkgPV1Ikp5/0tNd1AWWarQACcBoYcZHAAH7CeiVAORxwsN1eA0gPPx0kkhKsh8mFVtWgARg2dZQGAIImCagbwLQ5bKtV0mmmTKx9QRIANbrCRUhgIDZAnpdbvUaR4jTP/3zGoDZzwunzU8CcFpHWQ8CCNRfQK/LrV7jkADq31NG0AqQALQmHEEAAbcLKB/fq+fH+HV8817HMOH27rL+MwIkgDMS/BsBBBA4I6AkAF02dPkAPwngTHP4t24CJADdKBkIAQQcI6Bc+Ov5GkBS0unfB6DLl/hJAI55dllnISQA6/SCShBAwCoCSgKwSkF8EtA6nXBQJSQABzWTpSCAgE4CJACdIBnG0gIkAEu3h+IQQMAUARKAKexMGmIBEkCIwZkOAQRsIEACsEGTKLHeAiSAehMyAAIIOE6ABOC4lrKgAAIkgAAoHEIAAZcLkABc/gRwyfJJAC5pNMtEAIFaCGRnn/4VvNnZtXiI0afybUCjhV04PgnAhU1nyQggYD8BEoD9emb5ikkAlm8RBSKAAAL8PgCeAwYIkAAMQGVIBBBAQG8BXgPQW5TxBAmAJwECCCBgAwESgA2aZLcSSQB26xj1IoCAKwVIAK5su7GLJgEY68voCCCAgC4CJABdGBlELUACUGuwjQACCFhUgARg0cbYuSwSgJ27R+0IIOAaARKAa1oduoWSAEJnzUwIIIBAnQVIAHWm44FVCZAAqpLhOAIIIGAhARKAhZrhlFJIAE7pJOtAAAFHC5AAHN1ecxZHAjDHnVkRQACBWgmQAGrFxcnBCJAAglHiHAQQQMBkARKAyQ1w4vQkACd2lTUhgIDjBEgAjmup+QsiAZjfAypAAAEEahQgAdRIxAm1FSAB1FaM8xFAAAETBEgAJqA7fUoSgNM7zPoQQMARAiQAR7TRWosgAVirH1SDAAIIBBQgAQRk4WB9BEgA9dHjsQgggECIBEgAIYJ20zQkADd1m7UigIBtBUgAtm2ddQsnAVi3N1SGAAIIKAIkAIWCDb0ESAB6STIOAgggYKAACcBAXLcOTQJwa+dZNwII2EqABGCrdtmjWBKAPfpElQgg4HIBEoDLnwBGLJ8EYIQqYyKAAAI6C5AAdAZlOCFIADwLEEAAARsIkABs0CS7lUgCsFvHqBcBBFwpQAJwZduNXTQJwFhfRkcAAQR0ESAB6MLIIGoBEoBag20EEEDAogIkAIs2xs5lke8Ql+gAACAASURBVADs3D1qRwAB1wiQAFzT6tAtlAQQOmtmQgABBOosQAKoMx0PrEqABFCVDMcRQAABCwmQACzUDKeUQgJwSidZBwIIOFqABODo9pqzOBKAOe7MigACCNRKgARQKy5ODkaABBCMEucggAACJguQAExugBOnJwE4sausCQEEHCdAAnBcS81fEAnA/B5QAQIIIFCjAAmgRiJOqK0ACaC2YpyPAAIImCBAAjAB3elTkgCc3mHWhwACjhAgATiijdZaRK0TwNGjRx988MEePXq0adOmtepmyrK01ZtSBpMigAACRguQAIwWduH42muoVL3CoEGDEhMTR48e/fTTT/9Ddav+UQbdq63eoIkYFgEEEDBXgARgrr8jZ9deQ2tIAA0bNly1apVFLLTVW6QwykAAAQT0FSAB6OvJaEII7TW0hgTQqlWr4uLiOtgVFBS0atXK4/FkZGSsWLEi4AhlZWVjx44999xzo6OjU1NTp06dGvA05aC2euUuNhBAAAEnCZAAnNRNi6xFew2tIQG89tprAwYMOHbsWK0WMHv27KioqClTphQXF+fm5vp8vr1792pH6Nev38UXX7xkyZLdu3evW7du9erV2nPUR7TVq+9lGwEEEHCMAAnAMa20zkK019AaEkDnzp0bNGgQFxd3/vnnd1Hdql9SZmbm8OHDlXPS09PHjBmj7Mob7733XsOGDQ8dOuR3vJpdbfXVnMxdCCCAgH0FSAD27Z1lK9deQ2tIAI9UcatmheXl5REREfPnz1fOGTVqVK9evZRdeWPEiBF/+MMf7r///hYtWrRr1+7ee+89fvy43zlCiLKyssNnbiUlJZIkHT58WHsaRxBAAAEnCZAAnNRNi6yl1gmgDnUfOHBAkiT1S/r5+fnt27f3G+qqq67yeDx//OMf161b984776SkpNxyyy1+5/y6m5eXJ519IwFolTiCAAIOEyABOKyhVlhOHRPAJ5988tprr82cOXPjxo01LkNOAGvWrFHOfPzxx9PS0pRdeePKK6+MiYkpLS2Vd+fNmxcWFqZ9GYDXAPzc2EUAATcIkADc0OUQr7HWCeDgwYOXX355WFhYo0aNzjnnnLCwsCuuuOL777+vpu4g3wW4+eab27Rpo4xTXFwsSdL27duVI9oNbfXacziCAAIIOECABOCAJlptCdpraA2fAxg4cGDXrl2VLwR+/vnn3bp1GzRoUPULy8zMHDFihHJOhw4dtJ8EnDx5stfrPXLkiHzawoULw8PDta8BKIME/C6j+l62EUAAAccIkAAc00rrLKTWCSA+Pn79+vXqBaxbt65hw4bqI9pt+duAU6dOLS4uvuuuu3w+3549e379WN+YMWOGDBkin3/kyJGWLVsOGDDg888/Lyoqateu3e23364dSn1EW736XrYRQAABxwiQABzTSussRHsNreE1gLi4uE2bNqkXsHHjxgYNGqiPBNwuKChISUmJjo7OyMgoKiqSz8nJycnKylLO/+KLL3r37u31elu2bHnPPfdU/wIArwEobmwggIDjBUgAjm9x6BdY6wTQr1+/Xr16HThwQK51//79WVlZN9xwQ+hLJwGYYs6kCCBgigAJwBR2Z09a6wSwb9++Ll26REVFpaamtmnTJioqKiMjo6SkxBQmbfWmlMGkCCCAgNECJACjhV04vvYaWsO7ALLRBx988Mwzz0yaNGnJkiUmqmmrN7EYpkYAAQSMEyABGGfr2pG119CgEoBFvLTVW6QwykAAAQT0FSAB6OvJaAHfSQ+cACZNmvTLL78IISZVcTNFkwRgCjuTIoBA6AVIAKE3d/yM2mto4ATQqlWrH374QQjRKtCtdevWpkhpqzelDCZFAAEEjBYgARgt7MLxtdfQwAnAmjTa6q1ZJ1UhgAAC9RQgAdQTkIdrBbTX0FokgIqKik2bNv3444/acUNzRFt9aOZlFgQQQCDEAiSAEIO7YTrtNbSGBJCbm/vyyy8LISoqKi655JKwsDCfz7ds2TJTsLTVm1IGkyKAAAJGC5AAjBZ24fjaa2gNCSApKWnDhg1CiAULFrRo0eKrr74aN27cJZdcYoqdtnpTymBSBBBAwGgBEoDRwi4cX3sNrSEBeDwe+ff/3HHHHbm5uUKIXbt2BfNbgY3A1VZvxCyMiQACCJguQAIwvQXOK0B7Da0hAZx77rnvv/9+RUVFcnLy22+/LYT47LPPzjnnHFNotNWbUgaTIoAAAkYLkACMFnbh+NpraA0JIC8vr2HDhunp6eeee25ZWZkQYurUqd27dzfFTlu9KWUwKQIIIGC0AAnAaGEXjq+9htaQAIQQhYWFTz31lPJ3AcyYMWPhwoWm2GmrN6UMJkUAAQSMFiABGC3swvG119CaE4B1mLTVW6c2KkEAAQR0FCAB6IjJULKA9hoaOAHwW4F5xiCAAAImCpAATMR36tTBJgB+K7BTnwGsCwEEbCFAArBFm+xVZLAJwJqr0lZvzTqpCgEEEKinAAmgnoA8XCugvYYGfhdA+0grHNFWb4WqqAEBBBDQXYAEoDspA2qvoTUkgBtvvPGJJ55Qw02cOHHAgAHqIyHb1lYfsqmZCAEEEAilAAkglNoumUt7Da0hATRt2nTr1q1qna1btyYkJKiPhGxbW33IpmYiBBBAIJQCJIBQartkLu01tIYEEBMT8+WXX6p1vvjii5iYGPWRkG1rqw/Z1EyEAAIIhFKABBBKbZfMpb2G1pAAunXr9uijj6p18vLyMjIy1EdCtq2tPmRTMxECCCAQSgESQCi1XTKX9hpaQwJ48803IyMjb7755hm/3YYMGRIZGblgwQJTvLTVm1IGkyKAAAJGC5AAjBZ24fjaa2gNCUAIsWjRoksuuSQ2NrZJkyaXX3758uXLzYLTVm9WJcyLAAIIGCpAAjCU152Da6+hNScA60hpq7dObVSCAAII6ChAAtARk6FkAe01tOYE8NNPP02ZMuWBBx44dOiQEOLTTz/dv3+/KaDa6k0pg0kRQAABowVIAEYLu3B87TW0hgSwZcuWZs2atW3bNjIycufOnUKIBx98cMiQIabYaas3pQwmRQABBIwWIAEYLezC8bXX0BoSwB/+8If77rtPCBEXFycngNWrV6ekpJhip63elDKYFAEEEDBagARgtLALx9deQ2tIAPHx8V9//bU6AezZs8fj8Zhip63elDKYFAEEEDBagARgtLALx9deQ2tIAAkJCRs3blQngPfff79ly5am2GmrN6UMJkUAAQSMFiABGC3swvG119AaEsAdd9xxww03nDhxIi4ubteuXXv37u3SpUtubq4pdtrqTSmDSRFAAAGjBUgARgu7cHztNbSGBHD48OHf//7355xzTkRERHJyclRUVK9evY4ePWqKnbZ6U8pgUgQQQMBoARKA0cIuHF97Da0hAchGS5cuffLJJydMmLBkyRIT1bTVm1gMUyOAAALGCZAAjLN17cjaa2h1CeDkyZMRERHbtm2ziJe2eosURhkIIICAvgIkAH09GU0Iob2GVpcAhBCpqambN2+2iJ22eosURhkIIICAvgIkAH09Ga0uCWDatGnXXHON/NsATRckAZjeAgpAAIHQCJAAQuPsqlm019AaXgPo3LlzXFycx+Np3759F9XNFDVt9aaUwaQIIICA0QIkAKOFXTi+9hpaQwJ45JFHHn300Uc0N1PstNWbUgaTIoAAAkYLkACMFnbh+NpraJUJ4NixY3/9619btGjRrFmzQYMG/etf/zLdS1u96SVRAAIIIGCEAAnACFWXj6m9hlaZAP7f//t/sbGxd9xxx6hRo5o2bTpgwADT7bTVm14SBSCAAAJGCJAAjFB1+Zjaa2iVCSA1NfWf//yn7LVu3brIyMiKigpz+bTVm1sPsyOAAAIGCZAADIJ187Daa2iVCSAqKmr//v0KVkxMzL59+5RdUza01ZtSBpMigAACRguQAIwWduH42mtolQkgPDz8+++/V4zkvxdA2TVlQ1u9KWUwKQIIIGC0AAnAaGEXjq+9hlaZAMLCwq699to/nblFRkb26dPnzN6fTLHTVm9KGUyKAAIIGC1AAjBa2IXja6+hVSaAodXeTLHTVm9KGUyKAAIIGC1AAjBa2IXja6+hVSYAC+poq7dgkZSEAAII1F+ABFB/Q0bwE9BeQ0kAfkTsIoAAAuYLkADM74HjKiABOK6lLAgBBJwoQAJwYldNXhMJwOQGMD0CCCAQjAAJIBglzqmVAAmgVlycjAACCJgjQAIwx93Rs5IAHN1eFocAAk4RIAE4pZMWWgcJwELNoBQEEECgKgESQFUyHK+zAAmgznQ8EAEEEAidAAkgdNaumYkE4JpWs1AEELCzAAnAzt2zaO0kAIs2hrIQQAABtQAJQK3Bti4CJABdGBkEAQQQMFaABGCsrytHJwG4su0sGgEE7CZAArBbx2xQLwnABk2iRAQQQECvBPDGGyI9XSQl6fMnPV0UFtIcuwqQAOzaOepGAAFXCeiVANLThSTp+Sc93VV9cNRiSQCOaieLQQABpwrolQDkccLDdXgNIDz8dJJISnIqufPXRQJwfo9ZIQIIOEBA3wSgy2Vbr5Ic0B2bLoEEYNPGUTYCCLhLQK/LrV7jCHH6p39eA7D1s5AEYOv2UTwCCLhFQK/LrV7jkAAc8MwjATigiSwBAQScL6DXlVuvcUgADnjOkQAc0ESWgAACzhdQPsBfzy/y6fjxPR3DhPP7Z8kVkgAs2RaKQgABBM4WUBKALhu6fIWPBHB2i+y3RwKwX8+oGAEEXCigXPjr+RpAUtLp3wiky6/xIQHY/XlIArB7B6kfAQRcIaAkAOuslgRgnV7UrRISQN3ceBQCCCAQUgESQEi53TEZCcAdfWaVCCBgcwESgM0baMXySQBW7Ao1IYAAAn4CJAA/EHbrL0ACqL8hIyCAAAKGC5AADCd23wQkAPf1nBUjgIANBUgANmya1UsmAVi9Q9SHAAIICCGys0//Ev7sbAth8F0ACzWjTqWQAOrExoMQQAAB1wuQAOz+FCAB2L2D1I8AAgiYI0ACMMddv1lJAPpZMhICCCDgJgESgN27TQKwewepHwEEEDBHgARgjrt+s5IA9LNkJAQQQMBNAiQAu3ebBGD3DlI/AgggYI4ACcAcd/1mJQHoZ8lICCCAgJsESAB27zYJwO4dpH4EEEDAHAESgDnu+s1KAtDPkpEQQAABNwmQAOzebRKA3TtI/QgggIA5AiQAc9z1mzV0CaCgoKBVq1YejycjI2PFihXVLGHVqlURERGdOnWq5hz5Lm31NT6EExBAAAEEdBEgAejCaOIg2muoZEQ1s2fPjoqKmjJlSnFxcW5urs/n27t3b8CJSktLU1NT+/TpQwII6MNBBBBAwCICJACLNKLOZYQoAWRmZg4fPlypMj09fcyYMcqueiM7O/vBBx/My8urKgGUlZUdPnMrKSmRJOnw4cPqEdhGAAEEEAiBAAkgBMiGThGKBFBeXh4RETF//nxlJaNGjerVq5eyq2xMmzatW7duJ0+erCYB5OXlSWffSAAKIBsIIIBAyARIACGjNmiiUCSAAwcOSJK0evVqZQ35+fnt27dXduWN7du3JyQkfPXVV7/uVpMAeA3Az41dBBBAwBQBEoAp7DpOGroEsGbNGqXuxx9/PC0tTdkVQlRUVHTr1u2FF16QD1aTANSP0lavvpdtBBBAAAHjBEgAxtmGZmTtNVT/TwIG8y7ATz/9JElSxJlbWFiYvLt06dJqILTVV3MydyGAAAII6ChAAtAR05ShtNdQ/ROAECIzM3PEiBHKCjt06OD3ScBTp05tU91GjBiRlpa2bdu2o0ePKo/Sbmir157DEQQQQAABIwRIAEaohnJM7TXUkAQgfxtw6tSpxcXFd911l8/n27NnjxBizJgxQ4YM0S6YdwG0JhxBAAEELCVAArBUO+pQTIgSgBCioKAgJSUlOjo6IyOjqKhIrjUnJycrK0tbNwlAa8IRBBBAwFICJABLtaMOxYQuAdShuBofoq2+xodwAgIIIICALgIkAF0YTRxEew015F0Ag1aord6giRgWAQQQQMBPgATgB2K7Xe01lARguyZSMAIIIGCCAAnABHRdpyQB6MrJYAgggIBrBEgAdm81CcDuHaR+BBBAwBwBEoA57vrNSgLQz5KREEAAATcJkADs3m0SgN07SP0IIICAOQIkAHPc9ZuVBKCfJSMhgAACbhIgAdi92yQAu3eQ+hFAAAFzBEgA5rjrNysJQD9LRkIAAQTcJEACsHu3SQB27yD1I4AAAuYIkADMcddvVhKAfpaMhAACCLhJgARg926TAOzeQepHAAEEzBEgAZjjrt+sJAD9LBkJAQQQcJMACcDu3SYB2L2D1I8AAgiYI0ACMMddv1lJAPpZMhICCCDgJgFJEvKfpCRRzz/p6aKw0E121lgrCcAafaAKBBBAwG4CSgLQZSM93W7rt3+9JAD795AVIIAAAmYIKBf+er4AEB5++rWEpCQz1uDuOUkA7u4/q0cAAQTqKqAkgLoO8O/H8XmCegLW+eEkgDrT8UAEEEDA1QIkALu3nwRg9w5SPwIIIGCOAAnAHHf9ZiUB6GfJSAgggICbBEgAdu82CcDuHaR+BBBAwBwBEoA57vrNSgLQz5KREEAAATcJZGef/gx/dnZ918wnAesrWNfHkwDqKsfjEEAAAQT0ECAB6KFYlzFIAHVR4zEIIIAAAnoJkAD0kqztOCSA2opxPgIIIICAngIkAD01azMWCaA2WpyLAAIIIKC3AAlAb9FgxyMBBCvFeQgggAACRgiQAIxQDWZMEkAwSpyDAAIIIGCUAAnAKNmaxiUB1CTE/QgggAACRgqQAIzUrW5sEkB1OtyHAAIIIGC0AAnAaOGqxicBVCXDcQQQQACBUAiQAEKhHGgOEkAgFY4hgAACCIRKgAQQKmn/eUgA/iLsI4AAAgiEUoAEEEpt9VwkALUG2wgggAACoRYgAYRa/Mx8JIAzEvwbAQQQQMAMARKAGeqn5yQBmCXPvAgggAACpwVIAGY9D0gAZskzLwIIIIDAaQESgFnPAxKAWfLMiwACCCBwWoAEYNbzgARgljzzIoAAAgicFiABmPU8IAGYJc+8CCCAAAKnBUgAZj0PSABmyTMvAggggMBpARKAWc8DEoBZ8syLAAIIIHBaQJL+/Scp6XQaqOef9HRRWAhsUAIkgKCYOAkBBBBAwCABJQHotZGeblClThuWBOC0jrIeBBBAwF4CyoW/nj/9JyWJ8PDTLyckJdkLwLRqSQCm0TMxAggggID6XYD6a+gYJtzwbgIJoP5POUZAAAEEEKi7gHLZrvsQZx6pDKXLhuPfTSABnHni8G8EEEAAATMElKt1/SdXhqrnGwoueTeBBFD/pxwjIIAAAgjUXUC5bNd9iDOP1Gsol3xBkQRw5onDvxFAAAEEzBDIzj798b3sbB3mJgHUCpEEUCsuTkYAAQQQsK4ACaBWvSEB1IqLkxFAAAEErCug18sJvAtg3R4rlWnzi3IXGwgggAACCNRNgARQN7eQPooEEFJuJkMAAQTcIUACsEGfSQA2aBIlIoAAAnYTIAHYoGMkABs0iRIRQAABuwmQAGzQMRKADZpEiQgggIDdBEgANugYCcAGTaJEBBBAwG4CJAAbdIwEYIMmUSICCCBgNwESgA06RgKwQZMoEQEEELCbAAnABh0jAdigSZSIAAII2E2ABGCDjpEAbNAkSkQAAQTsJkACsEHHSAA2aBIlIoAAAnYTIAHYoGMkABs0iRIRQAABuwmQAGzQMRKADZpEiQgggIDdBEgANugYCcAGTaJEBBBAwG4CJAAbdIwEYIMmUSICCCBgNwESgA06RgKwQZMoEQEEELCbAAnABh0jAdigSZSIAAII2E2ABGCDjpEAbNAkSkQAAQTsJkACsEHHSAA2aBIlIoAAAnYTIAHYoGMkABs0iRIRQAABuwmQAGzQMRKADZpEiQgggIDdBEgANugYCcAGTaJEBBBAwG4CJAAbdIwEYIMmUSICCCBgNwESgA06RgKwQZMoEQEEELCbAAnABh0jAdigSZSIAAII2E2ABGCDjpEAbNAkSkQAAQTsJkACsEHHSAA2aBIlIoAAAnYTIAHYoGMkABs0iRIRQAABuwmQAGzQMRKADZpEiQgggIDdBEgANugYCcAGTaJEBBBAwG4CJAAbdIwEYIMmUSICCCBgNwESgM4dKygoaNWqlcfjycjIWLFihXb0efPm9e7du2nTpg0aNOjevfvixYu15/gdIQH4gbCLAAIIIFB/ARJA/Q3/M8Ls2bOjoqKmTJlSXFycm5vr8/n27t37n7t/28rNzZ0wYcL69eu3b9/+wAMPREVFbdy40e8cv10SgB8IuwgggAAC9RcgAdTf8D8jZGZmDh8+XNlPT08fM2aMshtwo2PHjo8++mjAu5SDJACFgg0EEEAAAb0ESAB6SYry8vKIiIj58+crI44aNapXr17Krnbj1KlTycnJzz77rPausrKyw2duJSUlkiQdPnxYexpHEEAAAQQQqJsACaBubgEedeDAAUmSVq9erdyXn5/fvn17ZVe7MXHixMaNGx88eFB7V15ennT2jQSgVeIIAggggECdBSRJyH+SkkT9/6Sni8LCOtdi4AO1r6NLus8mJ4A1a9YoIz/++ONpaWnKrt/GrFmzYmNjlyxZ4ndc3uU1gIAsHEQAAQQQ0EtASQB6baSn61WanuOEIgHU6l2A2bNne73eRYsWBbNKbfXBPIpzEEAAAQQQqEZAufDX/wWA8PDTLyckJVUzm2l3aa+h+r8GIITIzMwcMWKEssoOHToE/CTgrFmzYmJiFixYoJxZ/Ya2+urP514EEEAAAQRqFFASQI1n1niClT9SoL2GGpIA5G8DTp06tbi4+K677vL5fHv27BFCjBkzZsiQIbLgrFmzIiMjCwoKvj1zKy0trR5XW33153MvAggggAACNQqQAGokqt0JBQUFKSkp0dHRGRkZRUVF8oNzcnKysrLk7aysrLM/4Sfl5ORUPwcJoHof7kUAAQQQqIMACaAOaKF+CAkg1OLMhwACCLhAIDv79Jv32dk6LJV3AXRADDgECSAgCwcRQAABBCwiQAIwqhEkAKNkGRcBBBBAQA8BEoAeioHGIAEEUuEYAggggIBVBEgARnWCBGCULOMigAACCOghQALQQzHQGCSAQCocQwABBBCwigAJwKhOkACMkmVcBBBAAAE9BEgAeigGGoMEEEiFYwgggAACVhEgARjVCRKAUbKMiwACCCCghwAJQA/FQGOQAAKpcAwBBBBAwCoCJACjOkECMEqWcRFAAAEE9BAgAeihGGgMEkAgFY4hgAACCFhFgARgVCdIAEbJMi4CCCCAgB4CJAA9FAONQQIIpMIxBBBAAAGrCJAAjOoECcAoWcZFAAEEENBDgASgh2KgMUgAgVQ4hgACCCBgFQESgFGdIAEYJcu4CCCAAAJ6CJAA9FAMNAYJIJAKxxBAAAEErCIgSUL+k5Qk6vknPV0UFuq5Lu01VNJzeIPH0lZv8IQMjwACCCCAQC0ElASgy0Z6ei2mrvFU7TWUBFAjGicggAACCCAQlIBy4a/nCwDh4adfS0hKCmrSIE8iAQQJxWkIIIAAAgjUWkBJALV+5NkPMOLzBCSAs43ZQwABBBBAQD8BEoB+lmePpM0vZ9/PHgIIIIAAAmYKZGeffvU+O7u+NfAagL9gNQmgsrLyxIkTv3BDAIEQClRUVPj/V8o+AgjoIUAC8FesKgGUl5fv2bOnmBsCCIRW4Isvvjhy5Ij/f6jsI4BAvQVIAP6EARPAqVOnvvzyyx07dpSWlh4/fjyEP/8wFQKuFjh+/PjevXu/+OILXgnw/18V+wjUW4AE4E8YMAH88ssvxcXFx44d8z+bfQQQMFjg+PHjxcXFv/zyi8HzMDwCrhMgAfi3vJoEwP+D/LHYR8B4ATl/81+f8dLM4DoBEoB/y0kA/iLsI2CqAAnAVH4md7IACcC/uyQAfxH2ETBVgARgKj+TO1mABODfXTcngJSUlKefftpfRLVf4wmqc62yKUnSggULhBC7d++WJGnTpk1WqezsOsrLy9u0abNq1aqzD7tl7+DBg02bNt2/f792wSQArQlHENBFgATgz2j9BJCTkyP9douMjGzduvW999579OhR/2XUaf/777+v/tOONZ5Qq2mzsrLkhURFRaWmpo4ZM6asrKxWIwRzsl0SwLPPPnvFFVf4reiOO+4IDw//5z//qT6ek5Nz/fXXq49s2rRJkqTdu3fLBysrKydPnpyZmenz+Ro2bNi1a9enn366+s6qR6tm+8cff7zpppvif7vddNNNP/30U8CT5baq/zlx4kT5zDvvvDM1NTUmJqZp06b9+vX74osvlBHuvvvu2267TdlVNkgACgUbCOgrQALw97RFArj66qu//fbbffv2vf76616vd/jw4X7LOHHihN8RC+5mZWXdcccd33777d69e+fOndugQYMxY8boXqfRCUAv6vbt28+aNUu9/GPHjsXHx99///29e/dWH68xAQwePNjr9ebn569fv3737t0LFy687LLL5BdC1OPUYfvqq68+//zz1/x2O//88/v27RtwkG9Vt2nTpoWFhe3cuVM+c/LkyUVFRbt37/7000+vu+665ORk5Wt+W7dujYmJ+fHHH/3GJAH4gbCLgF4CJAB/SVskAPWPgLfffnvz5s1/XUZeXl6nTp2mTp3aunXrsLCwysrK0tLSO+64o1mzZg0aNLj88ss3b96srPbNN9/s2rWrx+Np0qTJn/70J/m4+kX+vLy85OTk6OjoxMTEkSNHak/Yu3dvv379fD5fgwYN/uu//uu7776Tz5HLePXVV1NSUuLj47Ozs3/++WdlXvVGVlZWbm6ucqR///4ZGRnybmVl5YQJE1q3bh0TE3PhhRcWqv7+6s8+++zaa69t6NiBtwAAGBRJREFU0KBBXFzcpZde+vXXXwsh1q9f37t37yZNmsTHx/fq1evTTz9Vhg0mAZSVld13330tW7aMjo5u27btyy+/LISYPn16w4YNlXEWLFggSf/+Wy79qF988cUWLVqcOnVKOfm66667+eab5d233norIyPD4/G0bt36kUceOXnypHKasvHpp5+Gh4cfPnxYOSKEmDFjRvfu3UtLS71er/Lz/a9vZ1SfAObMmSNJ0sKFC9VDyU8G9ZE6bBcXF0uStHbtWvmxH3/8sSRJX375ZfVDXX/99drXNuSHbNmyRZIkuYPykVatWk2dOtVvQBKAHwi7COglQALwlwwyAXTtevpvVDTiT9eu/iX57ftdAEaOHNmkSZNfz8nLy/P5fFddddXGjRu3bNlSWVn5+9///rrrrtuwYcP27dvvvffeJk2aHDp0SAixaNGiiIiIhx9+uLi4ePPmzfn5+fIUSgIoLCyMj49/99139+7du27dupdeesnvhMrKyi5dulx66aWffPLJ2rVrMzIysrKy5HPy8vLi4uL69++/bdu2FStWNG/efOzYsfJdfv9UJ4DNmzf/7ne/u/jii+Vzxo4dm56evnjx4p07d06fPt3j8SxfvlwIsX///saNG/fv33/Dhg1fffXVtGnT5CvQ0qVLX3vtNflX1d12222/+93vlNgRTAIYOHBgcnLy/Pnzd+7c+eGHH86ePbvGBKCm/uGHH6Kjoz/88EO5+B9//DE6Ovr9998XQixevDg+Pn7GjBk7d+784IMPWrVq9cgjj/g5CCGefvrpdM3f0d2zZ8/nnntOCHHjjTc+/PDDyqP8ngBCCPW7AP369UtLS1NOrn7DV8Xt6quv1j5w6tSp6kj0a9kNGzacNm2a9kzlyHfffRcZGfn6668rR5SNo0eP3nXXXa1bty4vL1cODhw4cOjQocquvEEC8ANhFwG9BEgA/pJBJgAZTvkLmnTcqPGvalZfANatW9ekSZOBAwf+uoy8vLyoqKjvv/9eXtLSpUvj4+PV76y3adNm8uTJQogePXoMHjzYf+VCKAng73//e/v27bWvbysnfPDBBxEREfv27ZMH+fzzzyVJWr9+vVxGbGyscgG+7777lOu634xZWVlRUVE+ny86OlqSpPDw8Llz5wohjh49GhMTs2bNGuX822677c9//rMQ4oEHHmjdurW2MOVMIURFRUWDBg3efvtt+WCNCeCrr76SJGnJkiXqQWpMAGpqIUS/fv1uvfVWeYTJkyc3b95cfnG7Z8+e48ePV0Z+7bXXEhMTlV1lIzc31+8H5e3bt0dFRf3rX/8SQixYsCA5OVl5jUH9BJBHUCeADh069OvXTxm5+o0dVdwCfiIvPz+/Xbt26gHbtWunXp36Lnl7woQJjRo18vsqf0FBgc/nkyQpPT1d/QKAEOLuu+++7LLL/MYhAfiBsIuAXgIkAH/JIBOAua8BRERE+Hw+j8cTHh7+pz/96eDBg78uIy8vr23btsp6Jk6cGB4erv4ZLzw8fPTo0UIIr9cb8Ec35QK/b9++5OTkli1b3n777fPnz1deuFZOmDRpUqtWrZS5hBDnnHPOK6+8IpfRsWNH5a6nnnqqdevWQoiZM2cqxaxYsUIIkZWVNXTo0B07dnz66acDBw68/fbb5UetX79ekiTlZJ/PFxUVlZmZKYS45pprlFfXlSmEEAcPHhw2bFi7du3i4+N9Pl9YWFhBQYF8Qo0JYM6cOREREdpUUf27AGpqIcScOXMaNmwo561evXrddddd8uyxsbExMTHKWmJiYiRJ0n4o784777z22mvVK7r//vuVd9nLy8sbN24sv6hQ47sA6enp6jeJ1GPWczs/P799+/bqQdq2bfvEE0+oj/htp6Wl/c///I/fwdLS0u3btxcVFV133XUZGRnqfDB27Fi50eqHkADUGmwjoKOAfCGr8YXnWs2ovYb++93TWo1i1sna6oUQlvp/UE5OTu/evXfs2LFnzx71dUt+c1px+7//+7+kpCS/n/HknykbN25cfQIQQhw/fvzNN98cOXJk8+bNe/ToIU+kJIB//OMf8nVdma5hw4avvvrqr7t+ZTz99NMpKSlCiJ9//lkp5vjx43ICUD4HcOLEiXbt2slvwK9du1aSpOXLlyvn79ixQ369oX///gETwDXXXNOtW7d33nnns88+27FjR9OmTZWvNdaYAN56662ACeCVV16Jj49XFvjGG2/4fQ5AuUvmatCgwbx58/bt2xcWFvbJJ5/I98bExEyYMEG9kB07dig/zSsjjB07tkePHspuRUVFYmJiWFhYxJmbJEnyKz1CiJEjR/r9oLxs2TJJkuTP0PXr18/vOq0Mq91Qoonfhi7vAqxYsUKSJPWnT/wKKC8vj42NVX/+cfjw4X/84x/9TrPUf31+tbGLAAJ+AtprKAnAj6heu9oXgeXh/C698gv16k+QKbNedtll1b8LoJwphPjyyy8lSZI/W6ckgIDvAmzYsOHXB/qVoSQA9ZjytvpzAPKr7s2bNz927NjPP//s8XjkPOH3qEceeSTguwBxcXHK+fv27ZMkKfgEsHv37rCwMO27AO+++25YWJjyTcuxY8dWkwDkH8379+8/YcIE9dvwl1xyifLugN9a1LuFhYWNGjWqrKyUD7711ltxcXGbN2/eduZWWFgYHR39ww8/CCEKCgqaNm2q/tF54sSJzZo1kx87e/bs4D8J6BdNlN2A7wLInwRct26dPJEc1Kr5JGBOTk7Xan+4KC8v93q906dPVyguvfTSBx98UNmVN0gAfiDsImBlARKAsd0JMgFUVlZeeumlnTp1Wrx48e7du1evXj1u3Dj5Ir1s2bLw8HD5k4Bbt26dMGGCXLFygZ8+ffrLL7+8bdu2nTt3jhs3zuv1ytce5QT5k4A9e/b89NNP161b17VrV/UnATt16qQQBJ8AysvLExMTn3zySSHEuHHjmjRpMmPGjK+//nrjxo3PPffcjBkzhBA//PBDkyZN5E8Cbt++/dVXX5WvQJ07d77yyiuLi4vXrl3bs2dPr9cbfAIQQgwdOjQ5OXnBggW7du1atmzZnDlzfv1R+9ChQz6fb9SoUTt27Hj99ddbtGhRfQL44IMPPB5PWlraY489pix/8eLFkZGReXl5n332WXFx8ezZs8eNG6fcq2zInyXctm2bfOT666/Pzs5W7hVCVFZWJiUl/eMf/xBClJaWNm/efMCAARs2bPj6669fe+21Ro0aKV+4r6yszM7O9nq948eP37Bhw549e95+++0rrrhCr28DXnjhhR//drvggguU9ymEEGlpafPnz1dqPnz4cGxs7AsvvKAcEULs3Llz/Pjxn3zyyd69e9esWXP99dc3btxYfg9LCHHs2DGv1yu/Q6R+FAlArcE2AhYXIAEY26AgE4D8wvvIkSNbtGgRFRWVnJw8ePBg5bN78+bN69y5c3R0dNOmTfv37y9XrFzgFyxYcPHFF8vvqXfv3l35lLtyghCi+m8DKgTBJwAhRH5+frNmzY4cOVJZWTlp0qS0tLSoqKhmzZpdddVVRUVF8phbtmzp06dPbGxsgwYNevbsKX/RfOPGjd26dfN4PO3atSssLFTXWeO7APK7PHfffXdiYqL8bUDlLZIFCxa0bds2Jiamb9++L730UvUJQH7pXpIk5bvvcsGLFy++5JJLvF7vr1+vyMzMVL5YoRDJG4MGDZJ/HYL8+fk33njD74SRI0decMEF8sEdO3bceOONSUlJPp/vggsueO6559TvLJw6deqFF1646KKLYmNj4+Pju3btOmnSJPmdF78xa7t76NChwYMHN/jtNnjwYPVvBJIkSf3T/OTJk71eb2lpqXqKAwcOXHPNNQkJCVFRUS1btvzLX/6ifglh1qxZ6pdPlAeSABQKNhCwvgAJwPo9okLLCWzdujUhIUH5DoXl6jO+oIsuuijg9wZJAMbbMwMCugmQAHSjZCBXCcyYMWPr1q2uWrKy2IMHD06YMEH5JIRy3Gqfw1UXxjYCCGgFSABaE44ggEAdBXgNoI5wPAwBMwRIAGaoMycCDhUgATi0sSzLmQIkAGf2lVUhYIoACcAUdiZFoG4Cjk0Aunyaum6mPAoB1wocP368uLhY/fsPXEvBwhGwvoADE0BFRUVxcbH8nXjrN4AKEXCSQGlpaXFxsfrXXzppdawFAYcJODABCCG++eYbOQQcP378F24IIBASgWPHjsm/ADvg1wQc9r9OloOAAwScmQAqKyvlECD/FbT8EwEEQiPw5Zdfqv8GYQf8L5IlIOBgAWcmALlhFRUVIfnJh0kQQODfAupfd+jg/2+yNAScIeDkBOCMDrEKBBBAAAEEjBAgARihypgIIIAAAghYXYAEYPUOUR8CCCCAAAJGCJAAjFBlTAQQQAABBKwuYO8EUFpaKklSSUnJYW4IIIAAAgggUBuBkpISSZLUfzO4ZPXQoqpPrl7ihgACCCCAAAJ1EigpKVGuq3ZKAKdOnSopKSktLa1N6Kn5XDlY8NJCzVLBnYFncE61OAvSWmAFdyqkwTkFexaewUoFfZ4RpKWlpSUlJeov8dopASixRd8N7Vsj+o7vttHw1L3jkEKqu4C+A/IU1ddTCBEaUhJAiKB1f35YdsDQPHEtu3wjCoNUd1VI9SXFU19PEoDunlUOyHO3Spo63YFnndiqexCk1enU6T5I68RW5YPwrJKmrneEhpTXAERZWVleXt6v/6xrp3jcWQJ4nsWhxw6keiieNQakZ3HUewfPehP6DxAaUhKAvzv7CCCAAAIIuEGABOCGLrNGBBBAAAEE/AVIAP4i7COAAAIIIOAGARKAG7rMGhFAAAEEEPAXIAH4i7CPAAIIIICAGwRclAAKCgpatWrl8XgyMjJWrFgRsLvLly/PyMjweDytW7d+4YUXAp7DQUWgRtJ58+b17t27adOmDRo06N69++LFi5XHshFQoEZS5VGrVq2KiIjo1KmTcoSNgALBkJaVlY0dO/bcc8+Njo5OTU2dOnVqwKE4KIQIxnPmzJkXXnih1+tt3rz50KFDf/jhB+iqEigqKurbt29iYqIkSQsWLKjqNIOuTW5JALNnz46KipoyZUpxcXFubq7P59u7d6+f9a5du2JjY3Nzc4uLi6dMmRIVFTV37ly/c9hVBIIhzc3NnTBhwvr167dv3/7AAw9ERUVt3LhRGYENP4FgSOWHlJaWpqam9unThwTgZ+i3GyRpv379Lr744iVLluzevXvdunWrV6/2G4ddWSAYz5UrV4aHh0+aNGnXrl0rV64877zzbrjhBgCrEnj33XfHjRs3b968ahKAcdcmtySAzMzM4cOHKz1IT08fM2aMsitvjB49Oj09XTk4bNiw7t27K7ts+AkEQ+r3kI4dOz766KN+B9lVBIInzc7OfvDBB/Py8kgAil7AjWBI33vvvYYNGx46dCjgCBxUCwTj+eSTT6ampiqPeuaZZ1q2bKnsslGVQDUJwLhrkysSQHl5eURExPz58xX6UaNG9erVS9mVN3r27Dlq1Cjl4Pz58yMjI0+cOKEcYUMRCJJUOV8IcerUqeTk5GeffVZ9kG1FIHjSadOmdevW7eTJkyQARS/gRpCkI0aM+MMf/nD//fe3aNGiXbt299577/HjxwMO6PKDQXquXr06Ojr6nXfeqays/O6773r16jVs2DCX0wWz/GoSgHHXJlckgAMHDkiSpH5lLz8/v3379n5dadeuXX5+vnJw9erVkiR98803yhE2FIEgSZXzhRATJ05s3LjxwYMH1QfZVgSCJN2+fXtCQsJXX3316wNJAIpewI0gSa+66iqPx/PHP/5x3bp177zzTkpKyi233BJwQJcfDNJTCFFYWBgXFxcZGSlJUr9+/fg5KphnTjUJwLhrk4sSwJo1a5Q2PP7442lpacquvNGuXbvx48crB1etWiVJ0rfffqscYUMRkP9fUCOpcv6sWbNiY2OXLFmiHGHDTyAY0oqKim7duimfUSUB+Bn67QZDKoS48sorY2JiSktL5YfPmzcvLCyMlwH8MIUQQXp+/vnniYmJEydO3LJly+LFiy+44IJbb71VOxpH/ASqTwAGXZtckQCCfPHKuFda/DrtgN0gSeWVzp492+v1Llq0yAELN24JwZD+9NNPkiRFnLmFhYXJu0uXLjWuMPuOHAypEOLmm29u06aNsszi4mJJkrZv364cYUMWCNLzpptuGjBggIK2cuVKXkxVNKrZqCYBGHdtckUCEEJkZmaOGDFC0e/QoUPATwJ26NBBOWf48OF8ElDR0G4EQyqEmDVrVkxMTDXfctGO7NojNZKeOnVqm+o2YsSItLS0bdu2HT161LVo1S+8RlIhxOTJk71e75EjR+ShFi5cGB4ezmsAAWGD8ezfv//AgQOVh69Zs0aSpAMHDihH2AgoUE0CGD16tEHXJrckAPlLLFOnTi0uLr7rrrt8Pt+ePXuEEGPGjBkyZIjcD/kbF3fffXdxcfHUqVP5NmDAp6lyMBjSWbNmRUZGFhQUfHvmprzWqozDhiIQDKly8q8bvAug1gi4HQzpkSNHWrZsOWDAgM8//7yoqKhdu3a33357wNE4GIzn9OnTIyMjn3/++Z07d65atapbt26ZmZnQVSVw5MiRTb/dJEl66qmnNm3aJH9TPTTXJrckAPkXWaSkpERHR2dkZBQVFcn9yMnJycrKUnqzfPnyLl26REdHt2rVSnm3VbmXDT+BgoKC6kmzsrKks285OTl+g7CrFqiRVH0yCUCtUdV2MKRffPFF7969vV5vy5Yt77nnHl4AqAozyP+RPvPMMx07dvR6vYmJiYMHD96/f381A7r8rmXLlp39/0hJ/p9kaK5NLkoALn+esXwEEEAAAQTUAiQAtQbbCCCAAAIIuEWABOCWTrNOBBBAAAEE1AIkALUG2wgggAACCLhFgATglk6zTgQQQAABBNQCJAC1BtsIIIAAAgi4RYAE4JZOs04EEEAAAQTUAiQAtQbbCCCAAAIIuEWABOCWTrNOBBBAAAEE1AIkALUG2wggECKBlJSUp59+Wp6smt+IHqJqmAYBVwqQAFzZdhaNQLUCOTk58m8qjYiISE5OHj58+I8//ljtI2p9Jwmg1mQ8AAG9BUgAeosyHgL2F8jJybn66qu//fbbkpKS999/PykpadCgQfouiwSgryejIVAHARJAHdB4CAIOF8jJybn++uuVRd5zzz2NGzeWd6dNm5aenu7xeNLS0goKCpRzSkpKsrOzGzVqFBsb27Vr17Vr1wohvv766379+iUkJPh8vm7dui1ZskQ5nwSgULCBgFkCJACz5JkXAesKqBPAzp07O3bs+Lvf/U4I8dJLLyUmJs6bN2/Xrl3z5s1r3LjxjBkzhBBHjhxJTU3t2bPnypUrd+zYMWfOnDVr1gghNm/e/OKLL27dunX79u3jxo2LiYmR/+ZTIQQJwLrtpzLXCJAAXNNqFopA0AI5OTkRERE+ny8mJkb+QMBTTz0lhEhOTp41a5YyzGOPPdajRw8hxOTJkxs0aHDo0CHlroAbHTt2fPbZZ+W7SAABiTiIQCgFSACh1GYuBOwhkJOT07t37x07dmzZsmXkyJFXXXXVyZMnv//+e0mSvF6v78zN4/EkJCQIIUaMGNGrVy/t2o4ePXrfffd16NChYcOGPp8vPDz8vvvuk08jAWi5OIJAiAVIACEGZzoEbCCgfhdACHHZZZc9+OCD3333nSRJM2fO3KG67dq1Swhxzz33BEwAI0aMSE1NnT9//tatW3fs2NGpU6fc3Fx5/SQAGzwPKNHpAiQAp3eY9SFQewG/BLBs2bKYmJgDBw4kJSX97//+r3a8GTNmxMfHa98FOP/885Xzjxw50rBhQxKAVo8jCJglQAIwS555EbCugF8CEEJ07dr1v//7v6dMmeL1ev/xj3989dVXW7dunTZt2t///nchRHl5efv27Xv27Llq1aqdO3fOnTtX/iTgDTfc0Llz502bNm3evPm6665r0KABCcC6Xacy9wmQANzXc1aMQE0C2gTw+uuvR0dH79u37/XXX+/cuXN0dHSjRo169eo1f/58ebA9e/bceOON8fHxsbGx3bp1W7dunRBi9+7dl19+udfrTU5Ofu6557KyskgANdlzPwKhEyABhM6amRBAAAEEELCOAAnAOr2gEgQQQAABBEInQAIInTUzIYAAAgggYB0BEoB1ekElCCCAAAIIhE6ABBA6a2ZCAAEEEEDAOgL/H6Rm505KjlgwAAAAAElFTkSuQmCC;" vertex="1" parent="1">
          <mxGeometry x="1044" y="625" width="182.21" height="143" as="geometry" />
        </mxCell>
        <mxCell id="DTfyCFZ58FffVUjiNzRJ-36" value="&lt;b style=&quot;font-size: 15px;&quot;&gt;&lt;font style=&quot;color: rgb(35, 55, 26);&quot; color=&quot;#1f450d&quot;&gt;&lt;u&gt;Recall&lt;/u&gt;&amp;nbsp;&lt;/font&gt;&lt;font style=&quot;&quot;&gt;+&lt;/font&gt;&lt;font style=&quot;color: rgb(35, 55, 26);&quot; color=&quot;#1f450d&quot;&gt;&amp;nbsp;&lt;/font&gt;&lt;/b&gt;&lt;b style=&quot;font-size: 15px;&quot;&gt;&lt;u&gt;&lt;font color=&quot;#f50000&quot;&gt;False positive rate&amp;nbsp;&lt;/font&gt;&lt;/u&gt;&lt;/b&gt;&lt;b style=&quot;background-color: initial; font-size: 15px;&quot;&gt;&lt;u&gt;+&lt;/u&gt;&lt;/b&gt;&lt;div&gt;&lt;b style=&quot;background-color: initial; font-size: 15px;&quot;&gt;&lt;u&gt;&amp;nbsp;thresholds = ROC&lt;/u&gt;&lt;/b&gt;&lt;/div&gt;" style="text;html=1;align=center;verticalAlign=middle;resizable=0;points=[];autosize=1;strokeColor=none;fillColor=none;" vertex="1" parent="1">
          <mxGeometry x="331" y="763" width="223" height="48" as="geometry" />
        </mxCell>
        <mxCell id="DTfyCFZ58FffVUjiNzRJ-37" value="&lt;b style=&quot;font-size: 15px;&quot;&gt;&lt;font style=&quot;color: rgb(35, 55, 26);&quot; color=&quot;#1f450d&quot;&gt;&lt;u&gt;Recall&lt;/u&gt;&amp;nbsp;&lt;/font&gt;&lt;font style=&quot;&quot;&gt;+&lt;/font&gt;&lt;font style=&quot;color: rgb(35, 55, 26);&quot; color=&quot;#1f450d&quot;&gt;&amp;nbsp;&lt;/font&gt;&lt;/b&gt;&lt;u style=&quot;font-size: 15px;&quot;&gt;&lt;b&gt;&lt;font color=&quot;#0c09ec&quot;&gt;Precision&lt;/font&gt;&lt;/b&gt;&lt;/u&gt;&lt;b style=&quot;font-size: 15px;&quot;&gt;&lt;u&gt;&lt;font color=&quot;#f50000&quot;&gt;&amp;nbsp;&lt;/font&gt;+&amp;nbsp;&lt;/u&gt;&lt;/b&gt;&lt;div&gt;&lt;b style=&quot;font-size: 15px;&quot;&gt;&lt;u&gt;thresholds =&amp;nbsp;&lt;/u&gt;&lt;/b&gt;&lt;span style=&quot;font-size: 15px;&quot;&gt;&lt;b&gt;&lt;u&gt;Precision Recall curve&lt;/u&gt;&lt;/b&gt;&lt;/span&gt;&lt;/div&gt;" style="text;html=1;align=center;verticalAlign=middle;resizable=0;points=[];autosize=1;strokeColor=none;fillColor=none;" vertex="1" parent="1">
          <mxGeometry x="1001" y="567" width="272" height="48" as="geometry" />
        </mxCell>
        <mxCell id="DTfyCFZ58FffVUjiNzRJ-38" value="" style="shape=image;verticalLabelPosition=bottom;labelBackgroundColor=default;verticalAlign=top;aspect=fixed;imageAspect=0;image=data:image/png,iVBORw0KGgoAAAANSUhEUgAAArsAAAIdCAIAAACyRCImAAAgAElEQVR4AeydC1wUVf//Z5frAkmIkAgJaiJoqfgo+rfyltmjac9jWT1Z/jTNTE3NzNLHxwRFSAWVFKFUKFMxL5iX8IKikKLGk5cUTLwgIQkKAnJfdnf+4uh5ZrgsO8vs7szuZ1686szZc76X9xk5H86cmaVoHCAAAiAAAiAAAiDQHAGquQb4HARAAARAAARAAARoKAZcBCAAAiAAAiAAAs0TgGJonhFagAAIgAAIgAAIQDHgGgABEAABEAABEGieABRD84zQAgRAAARAAARAAIoB1wAIgAAIgAAIgEDzBKAYmmdkaS3i4uKox4eVlVXbtm3ffvvtrKwsI3Dw9vYeP368ERwRF+Xl5WFhYT179nR0dHRwcOjRo8fSpUvLy8tJA5MUli5dunv3brbrY8eOURR17NgxdqWw5evXr0+fPr1z58729vYKhaJr164LFiy4desW42XgwIHdunUT1qPe1rZs2bJq1Sq9u5OOOl5vJ0+eXLRoUXFxMelI0/TAhwe7hld5yJAhU6ZMYbowg8v8m5PL5W3atBk5cmR6eno9gxqNZsuWLYMHD37yySdtbW07dOgwbdq0P//8s14zmqb37t07cuRId3d3GxsbFxeXIUOGbN68WalU0jR97949Z2fneldXQws0TWu/HhrtgkqzJwDFYPZDzDtBRjHExcWdOnXq2LFjISEhCoXC3d393r17vG3x7HD27Nlr167x7KR/8/z8/GeffVahUHzxxReHHx7z5s1TKBTPPvtsfn6+/nZb3NPR0bGeciotLT116lRpaWmLbTduYN++fY6Ojt7e3itWrDhy5MjRo0dXr17dvXv3nj17Mh1EpRheffVVb2/vxjPhU6vj9bZixQqKorKzs9m2Mx4e7Brdyz/99JOdnR1RY4xiCA0NPXXqVGpqamRkZOvWrR0cHNgyXa1Wv/322xRFvfPOOz/99NOxY8ciIyO9vLyefPLJEydOENcajWbChAkURY0YMWLz5s0pKSl79+6dPXt2q1atVq9ezTQLCgp65plnampqSK+GhWavh4ZdUGMJBKAYLGGU+eXIKAb2nzjBwcEURcXGxvIzJJrWKpWqurq6YTjDhg2ztrb+5Zdf2B/98ssv1tbWr7zyCrtSqHJTkdSz31Ax1Gsg7OmNGzccHR0DAgJKSkrYljUaza5du5gaARWDRqOprKxkO+Jbbrli4BVAo4qBb8zs9oGBgf/6179IDaMYduzYQWq+//57iqK+/PJLUhMaGkpR1FdffUVqaJrOz8/39vZ+6qmnyPrHsmXLKIoKDg5mN6Np+vbt2+Q6z8/Pt7a23rJlS7025FSX64E01qWgVCpra2t1aYk2IicAxSDyATJBeA0Vw88//0xRVFhYGIkmPT191KhRLi4udnZ2PXv2/PHHH8lHNE3funVr8uTJXl5eNjY2Hh4eb7zxBvmTvbS0dM6cOT4+PjY2Nu3atZs1axb7FgBZJb5z546Njc1//vMfttnLly9TFBUZGclU3r59+8MPP/T09LSxsfHx8QkKCiK/lbKzsymKWrZs2ZIlS3x8fKysrA4cOMA2RdN0eno6RVFkZZj96YcffkhR1H//+1+mkqKo6dOnx8TEdO7c2dbW1t/fPz4+nt2ebyRVVVWffvppjx49WrVq5eLi0q9fv59++okYfHxH6NH/Bw4c+GANvN5difHjxzs6Ol69enX48OGOjo5eXl6ffvopWxXl5ua+8cYbTk5Ozs7OY8eO/fXXXymKiouLI17YhY8//piiqFOnTrEr65UZxfDrr7++8MILCoWiQ4cOYWFharWaaaY9I5qmGYbR0dF+fn42NjbR0dEPKoOCggIDA11cXJ544omAgIANGzZoNBq23y1btvTr18/x4dGjR48NGzYwtwPqIWK61NTULFmypEuXLra2tm3atJkwYcKdO3eINW9v71dffXXXrl09e/a0s7P74osvaJom1xtN02q1esmSJb6+vvb29s7Ozs899xzzR/miRYvquWPuDdW7K1FdXR0cHOzn52dnZ9e6detBgwY9uJdBvLMLZ8+epSjq559/JpUNFUNGRgb74qypqXFxcfH396/Hh6bprVu3UhQVHh5O07RSqWzdurWfn1/DZsQXUxg+fPiLL75Yr5Kc6nI9sNExHdlAmIw2bdr06aeftmvXTiaTnT9/nqIoZgSJo8TERIqi9uzZw9RkZWW98847bm5utra2fn5+a9euJS1REAkBKAaRDISIwmioGNauXUtRFPlzMzk52dbW9sUXX/zxxx8PHjzIrIKS2ejWrVseHh5t2rRZuXLlkSNHfvzxx4kTJ16+fJmm6YqKip49e5KPIiMjnZ2dhwwZQn7BsX8NjR49+umnnyZzEk3Tn3/+ua2tbWFhIfM309NPP+3t7f3NN98cOXJkyZIldnZ2EyZMYDgyisHT03Pw4ME7d+48fPhwvSVlmqaZP9oaKgmapplfZEQhURT19NNPd+3aNT4+fu/evX//+98piiJ/Ed6+fZtvJCUlJRMmTPjhhx+Sk5MPHjz42WefyeXy77//ngn+1KlTCoVixIgRpx4eGRkZjSoGRruEh4cfOXLkyy+/lMlk5C/L8vLyZ555pnXr1lFRUYcOHZo9e3aHDh20KAZfX9+nnnpK+yU4cOBAV1fXzp07x8TEJCUlTZs2jaIoErP2jBjF4Onp2b17961btyYnJ1+6dImm6QkTJmzcuDHp4bFkyRKFQkFSeDCFL1y4kKKo119/fceOHYcPH165cuXChQtpms7IyHj++efbtm3L8GGEjlqt/vvf/+7o6BgcHJyUlLRhwwZPT8+uXbuStYQHl4qHh0fHjh1jY2OPHTv266+/1lMMYWFhVlZWixYtOnr06MGDB1evXh0UFETTdG5u7owZMyiKSkhIYDwy94bYE2Rtbe3gwYOtra0/++yzxMTEvXv3/vvf/64nKwnexYsXW1lZlZWVkZqGimH//v0URUVERDBt0tLSKIpiVA7pxRTKysrkcjmzJKalWb1ey5Ytk8vlZGWi3qe6XA/sf6pMdzYQJiNPT88xY8bs3bt3//79RUVFAQEBzz//PNvXW2+95e7uzgj9jIwMRqht2rTp8OHDc+bMkcvlzBCwu6BsWgJQDKblL0bvjGI4ffp0bW1tWVnZwYMH27ZtO2DAAPIXvJ+fX0BAADmlaXrkyJEeHh7M7D5x4kQbG5vMzMyGuYWFhcnlcvb9jp07d1IUlZiYyDRm/xrau3cvRVGHDx9mPlKpVO3atXvjjTeY0ylTpjg5OeXk5BAv4eHhFEUx8yujGDp16sTs9iJt2IWPPvqIoqg//viDXcmUmcWMqVOnMqcPlisUCgVZJlGpVH5+fs888wzzaQsjUalUtbW1kyZNCggIIJE0vCvB/AomOx/Hjx9PUdT27dtJlxEjRnTp0oU5jYqKoiiKLYamTJmiRTHY29v369ePmGq0MHDgQIqizpw5Qz7t2rVro/duGs2IoihnZ+emtsKo1era2trFixe7uroy8vHGjRtWVlbvvvsucccuNLwrER8fzxa1ZA1p3bp1TEdvb28rK6srV66w7bCvt5EjR5JNG+w2NE03eleCPUFu2rSJoqj169fX69jo6fDhw/38/NgfMYP7448/1tbWVlZWnjx5skuXLl27diUz+rZt2yiKiomJYfci5aeeesrf35+mae3NSHuappOSkupdIexPdbke2OiYvmwgTEYDBgxgm/36668f7MMgQ3Dv3j07O7s5c+YwbV555RUvLy/2Tp2PP/7Y3t6+qWuGbRlloxGAYjAaask4YhQDeyXW39+f/PK6evUqswpayzrWrVtHURSjEjw8PIYNG9Zots8//3z37t1Z/eoUiUwm+/zzz5n27F9DtbW1bdu2feedd5iPmDsjZC3X09Nz1KhRbFPMQi4zQzCKYfbs2Y2GwVRqUQyZmZkURU2bNo1p+eAOxciRI9mmmJXq3Nxcmqb1i2T79u39+/d3dHQknO3t7YkLXRSDTCarqqoiXebNm0csvPXWW0888QT5iKbp48ePt1wxtG3blm3zX//6F3vm054RRVGjR49md6dp+ujRoy+99FKrVq0IBIqiGGX2zTffUBSVlpZWrwtz2lAxvPvuu08++SRzv5xcFW3btn3rrbeYLt7e3mxNRirJDtPFixfLZLKpU6cePHiQPW/pohjeeecde3t79npYo2EzlT169Kg3lTLzKxuCh4cHe1VMuxRwd3fv2rUrL8Vw4cKFhvcISMxCKQZyA5GxXFRUZGdnN3/+fOaU0bXMalNVVZW1tfWMGTPI2NXW1jJLfeTPCRIeCiYkAMVgQvgidc0ohk2bNqWnpycnJzN/nv79739nwj1x4gT7Vxu7nJqaStO0tbX1xIkTG83tmWeeYbcnZdKerRge3MWYO3euvb09I1befPNNDw8PlUrFWLa2tibd2YXFixfTNM0ohuXLlzcaBlPJ667EBx98wDYVHR1NUdT58+eZfNkBkLKWSHbt2vVgOeTNN9/cvXv3qVOn0tPTJ06cSFH/+8eoi2JwdHRkh8SIGKbmpZdeIksgTA2zakLuHLE7PrgXrssqdMOdj+PHjycPLDSbEVuBMd7PnDljZWX10ksv/fjjjydPnkxPT1+wYAF5JCEkJISiqEYfHXywftBQMQwdOpSQZxeGDBnCuPP29h4xYkS9xNnXW21tbUREREBAgEwms7a2HjJkCFkMa3aNYejQoR07dqxnvKlTX1/fepKaUQzLli1LT09PSUlZsGCBXC7v0aMH2Zii5XZDeXm5Hnclrly5QlHUmjVrGg1Sl+uBjY4x0nCNgb0GxrR58803PT09mX/Fffr0CQwMZOpv3brFHjV2edOmTY0GiUqTEPjfLymTuIdTERJouI/hgw8+IHfu//jjD4qi5s+fn97guH//Pk3TWtYY+vXr99xzzzXol07+nKr3a4j5Wz86OppZwGTfx23btu2wYcMamsrLyyOKYcWKFVrw8tr5qGWNQY9IRo8e3aFDB7J7g6bpd999V0DF0HCNgZmTmlIMzH16XXY+snmyFUOzGTE7H9ndZ8+ebW9vz14mYSsGvmsM//rXv1xdXRteD+SuE7PzkR1AvX0M5KPi4uIdO3Z07ty5devWFRUVgq8x9O/fv3fv3sQd2aRCdsY8kKGMYCIXsOA7H0+dOkVRVFM7LXS5Hrp06cJ+3IOm6W7dujG7dBvNiMmXWTY4cOAAsyLIbIBldjhZWVlNmDCh4Qgy+5bYuFA2IQEoBhPCF6nrhorh3r17zFZtZt21c+fODf9cI8kw+xjIb2pSz/wedHBwuHHjBruSXa6nGGia7tu3b2BgILP1km3zgw8+aNeuXVP3OJk1BvILl+2CXWaermQ/zk7TNPN0JVlTYXbtNdzH0KlTJ8aUHpG8/vrrZM8Bs4vTycmJrRhat25NltMZL8yUz97HoGWNgVnvZS/nat/HoOVpuoSEBCYA7WsMzWbUUDF8+umnTk5OZKNJZWVl+/btyRpDdna2lZXVuHHj2ONFyq+//rq7uzs5pWl68+bNFEWdPn2aXcku664YmF4Pdj6SbTHMDfh6W3PYf1Iz+xg2btzI9thUeeLEia1bt2Z/ygwuWzEolcpnnnnG1dWVUeFko+6yZcvYHQsKCpinK8ljsU09XVlQUMC+zrds2fLgPtGFCxfY1khZl+vhlVdeYW6FML2uXLlibW3drGJQqVSenp5vvfXWZ599Zm9vT8KmaXro0KE9evTQ/pYIEiEKpiIAxWAq8uL121Ax0DS9fPlyiqJ++OEHmqaTk5Pt7OyGDRu2devWlJSU3bt3h4aGjhkzhkmJeVbC3d199erVR48e3bVr1+TJk5lnJcrLyx88ROfl5RUREZGUlHTo0KH169e/+eab5Bd9Q8XA/K3p5eXVv39/NrK//vrL29vbz89v3bp1R48e/fnnn6Oiol599VVmb4GOioF5g5ODg8O8efOYHfvz5893cHCo9wanRp+V2LZtGxOPHpHExsZSFDV16tSjR49+9913nTp16ty5M1sxDBw40N3dfe/evenp6YxO4qUYyLMS69atO3z48OzZsx88fcp+tIFNkinv27fPwcHBx8cnPDz86MNjzZo1AQEBZDOgdsXQbEYNFcPRo0cpihozZszhw4fj4+P/9re/MRDIghPzrMSYMWN27dp15MiRr7/+mryfgLkFs27dujNnzjD3DlQq1fDhw1u3bh0cHHzgwIEjR458991348ePJ4qnWcUwcuTIefPm7dy5MyUlZdOmTT4+Pt7e3oygYeBPmTIlLS0tPT2dmcXZioF5VsLGxubzzz8/cODAzz///OWXXzb1FzwjL8gGwKb+It++fTtFUUuWLGEGiLzBaezYsXv27Dl+/PjXX3/99NNPN/UGp1dffXXLli2pqan79u2bO3eus7MzeYMTTdMzZswgm0wbXgw0TTd7PTASberUqUeOHNm4cWOXLl08PDyaVQw0Tc+fP9/Ozs7NzW3s2LFs1xkZGS4uLoGBgXFxcceOHdu7d+/KlSsHDx7MboOyyQlAMZh8CEQXQKOKoaqqqn379p07d2buQV64cIF5MsrGxqZt27ZDhgxhb+TOzc2dOHFi27ZtmZcuvPXWWwUFBUye5eXl//nPf5iH5pmHqWbPnk0eQ2ioGEpLSxUKRaMb0e/evTtz5swOHTrY2Ni0bt36b3/724IFC5i3O+ioGGiaLi8vDw0N7dmzp8PDo3v37iEhIexXRDBrDNOnT1+3bl2nTp1sbGz8/Pzqvf1Gj0i++uorHx8fOzs7f3//B3vs2bsQaJo+f/78888/7+Dg8ODN0MxvYV6KgabpP//88/XXX3dycnriiSfeeOMNZjWYPPje6DV3/fr1adOmPfPMM3Z2dsxboj/99FMyf2tXDDRNa8+ooWKgaTo2NrZLly52dnYdO3YMCwvbuHEjWWNgIty0aVOfPn3s7e2dnJwCAgLIXZV79+6NGTPmySeflMlkRGnV1taGh4f36NGDae/n5zdlypSrV68ypppVDBEREf3792/Tpo2trW379u0nTZp08+ZNAmr+/Pnt2rV78LwfeVc3WzHQNF1VVfXll18yb+xwdXUdMmRIU9s2S0tLnZyc2JtsGq4xMH779u3r4uJC/hBn3hI9aNAg8pboqVOnsh8XItHu2bPn1VdfdXNzs7a2dnFxGTx4cExMDPnzXaPReHt7z5gxg7RvtKD9etBoNMuXL+/YsaO9vX3v3r2Tk5PZQJrKiKbprKwsZptCUlJSPb/Z2dkTJ05k3rDi5ubWv3//kJCQem1waloCUAym5Q/vEiDQ6GwngbhZIS5dulQmkzELMKxqFE1D4OOPP270dUzGiebIkSNyuZxZ9jOOR3gxGwJQDGYzlEjEUASkqBjWPDySkpISExM/++wzW1vbpvYEGIoa7DZNID8/v1WrVuyNC023Ff6TQYMG1Xv2R3gfsGimBKAYzHRgkZZwBKSoGDZu3Pjss886OTnZ2Nh06tRp4cKFZFFaODCwpD+Bffv2meS5wQebhRctWkTuEuqfAHpaJAEoBoscdiQNAiAAAiAAAjwJQDHwBIbmIAACIAACIGCRBKAYLHLYkTQIgAAIgAAI8CQAxcATGJqDAAiAAAiAgEUSkKRiUKvVubm5JSUlpThAAARAAARAAAT4ECgpKcnNzdXxu9PY0kiSiiE3N5f9VSUogwAIgAAIgAAI8CKgxwtaJKkYSkpKKIrKzc3lI6rQFgRAAARAAARAoJT5q5u8TpS9iqC9LEnFUFpaSlFUve+w154nPgUBEAABEAABEKBpWu85FIoB1w8IgAAIgAAIWBABKAYLGmykCgIgAAIgAAJ6E4Bi0BsdOoIACIAACICABRGAYrCgwUaqIAACIAACIKA3ASgGvdGhIwiAAAiAAAhYEAEoBgsabKQKAiAAAiAAAnoTgGLQGx06ggAIgAAIgIAFEYBisKDBRqogAAIgAAIgoDcBKAa90aEjCIAACIAACFgQASgGCxpspAoCIAACIAACehOAYtAbHTqCAAiAAAiAgAURgGKwoMFGqiAAAiAAAiCgNwEoBr3RoSMIgAAIgAAIWBABKAYLGmykCgIgAAIgAAJ6E4Bi0BsdOoIACIAACICABREQqWJISUkZOXKkh4cHRVG7d+9uakCOHz/eq1cvOzu7Dh06REdHN9WM1OudLbGAAgiAAAiAAAhYJgG951DKoLwSExMXLFiwa9cuLYrhxo0bDg4Os2bNyszMXL9+vY2Nzc6dO7VHpXe22s3iUxAAARAAARAwewJ6z6GGVQyEuxbF8Pnnn/v5+ZGWU6ZM6devHzlttKB3to1aQyUIgAAIgAAIWA6BkyevUhRVWlrKN2XTK4YXX3xx5syZJO6EhARra2ulUklqmEJ1dXXp4yM3N1e/bOvZxCkIgAAIgEB9An9sp2P96BhP/JgfgdJVPuP6vktR8/SbQ02vGDp37rx06VJyyZ48eZKiqL/++ovUMIVFixZR3EMPfVTPJk5BAARAAATqE4j1o8Mp/JgfgRPTn/ZxmUVRQdJWDKGhoeSSPXHiBEVRt2/fJjVMAWsM9YDgFARAAAQMQiDGs26yjJCb31/YFptRbZTXl6+Oksu+fCgXgp6wmyPVNQYd70qw/2FgHwObBsogAAIgICQBRjHEeAppE7ZMR+DataK+fdczWoGigl54Ifb333Okqhg+//xzf39/AvOjjz7CzkdCAwUQAAEQMDYBKAZjEzeUP41GExd3zskplJELVlbBISEpKpVa77+6DbuPoays7NzDg6KolStXnjt3Licnh6bpefPmjRs3joHEPF05e/bszMzMjRs34ulKQ107sAsCIAACuhCAYtCFkhTaqFTqF16IZeRCp06Rp0/nMlGLVDEcO3aMu1uRGj9+PE3T48ePHzhwIAF+/PjxgIAAW1tbHx8fvMGJYEEBBEAABExAAIrBBNAN5TI7u7hVq7BJk/aUldUQHyJVDCQ+YQt6ZytsGLAGAiAAAmZIAIpByoNaU6O6fv0eO4Nbt+q/d0HvOdSwdyXYQQtY1jtbAWOAKRAAARAwTwJQDJId18uX7/bq9U2nTpH371drSULvORSKQQtVfAQCIAAClkcAikGCY67RaKKj0xWKEGbXwgcf7NGSBBSDFjj4CARAAARAQGcCUAw6oxJJw4KC8lGjtpLnJ/391547V/+dRuxQoRjYNFAGARAAARDQlwAUg77kTNIvMTHrqadWELkwffrPFRX1v2ahXmBQDPWA4BQEQAAEQEAvAlAMemEzfqfKSuWMGYlEK7i7r9i//4ouYUAx6EIJbUAABEAABJojAMXQHCExfK5Sqf/2t2+IXBgxYkt+fpmOgUEx6AgKzUAABEAABLQSgGLQikc8H65adYqiguztQ9auPaPRaHQPDIpBd1ZoCQIgAAIg0DQBKIam2YjqE7VaM2vWgYyMO3yjgmLgSwztQQAEQAAEGiMAxdAYFTHU7d59eenS1JZHAsXQcoawAAIgAAIgQNd9JXQ4VfdfHKIhUF5eM3nyXooKksmCkpNvtDAuKIYWAkR3EAABEACBhwSgGER2IaSn5/n6riGbHKdN29/CAKEYWggQ3UEABIQm8Md2Otav7k9V/EiLQIQcawxC/2PQ055KpQ4NTbW2XszIBQeHpRs2/MZrk2OjjqEYGsWCShAAAdMRiPWrm3jwI1ECsX6mu3TguY5ATk7JgAFxZGmhT59vs7IKBUEDxSAIRhgBARAQjgCzuB0hxxqD9AjE+tFXdgh3KcASbwLbtl10dg5j5IJcHrxgwVGlUsXbShMdoBiaAINqEAABUxHA7XBTkYdfiRNQqdS9e3/LyAVv71WpqTeFTQiKQViesAYCINBiAlAMLUYIAxZL4MqVQgeHpe++u6ukpEpwCFAMgiOFQRAAgZYRgGJoGT/0tigCtbXq3NxSdsrXr99jnwpYhmIQECZMgQAICEEAikEIirBhCQSuXSvq23e9v//aZr92UhAaUAyCYIQREAAB4QhAMQjHEpbMlYBGo4mLO+fkFMrsWvj445+NkCkUgxEgwwUIgAAfAlAMfGihrQUSKCqqfPPN7eT5yU6dIk+fzjUCBygGI0CGCxAAAT4EoBj40EJbSyOQnHzD0zOCyIWJE38qK6sxDgQoBuNwhhcQAAGdCUAx6IwKDS2KQE2Nau7cwzJZECMXXFy+2rkzw5gEoBiMSRu+QAAEdCAAxaADJDSxNAK1terAwPVkaWHIkO/rPSJhBCBQDEaADBcgAAJ8CEAx8KGFtpZDICQkhaKCbGwWr1hxUq3WGD9xKAbjM4dHEAABrQSgGLTiwYcWS0ClUk+atOfs2b9MRQCKwVTk4RcEQKAJAlAMTYBBtaURSEzMWr36lHiyhmIQz1ggEhAAgYcEoBhwIVg8gcpK5YwZiRQVZGUVnJb2p0h4QDGIZCAQBgiAwGMCUAyPSeD/lkng/Pnb3bpFkU2OH320TyQcoBhEMhAIAwRA4DEBKIbHJPB/SyOgVmtWrkyztV3CyAV7+5C1a89oNCbY5NgoeSiGRrGgEgRAwHQEoBhMxx6eTUggL+/+yy9vIksL3btHX7pUYMJ4GrqGYmjIBDWWTeCP7XSsHx3jiR+TEYiQ0+FUnXccIGAxBBISMl1dlxG5MGfOoerqWrFlD8UgthFBPKYmEOtXN13hx+QEYv1MfSnAPwgYiUBtrfrZZ9cxcsHDIzwp6bqRHPN0A8XAExiamz0BZkk8Qm6yv7CxvBHjWbfMc2WH2V9rSBAECIHff8+3s1syevS2wsIKUim2AhSD2EYE8ZiaAG6im3oE4B8ELIGASqXOzy9jZ5qRcUc8mxzZgZEyFANBgQIIPCQAxYALAQRAwMAEbt4sHjAgLiAgpqZGZWBXQpqHYhCSJmyZAwEoBnMYReQAAuIlEB9/0dk5jNm18Pnnh8UbaIPIoBgaIEGFhROAYrDwCwDpgyXlbnoAACAASURBVIDBCJSWVo8bl0AeiPD2XpWaetNg3oQ3DMUgPFNYlDYBKAZpjx+iBwGREjhxIsfHZzWRC+++u6ukpEqksTYRFhRDE2BQbbEEoBgsduiROAgYhoBSqVq4MFkuD2bkQqtWYZs3XzCMK8NahWIwLF9Ylx4BKAbpjRkiBgHxElAqVf37byRLCy+8EJudXSzecLVGBsWgFQ8+tEACUAwWOOhIGQQMSeDf/z7CfAtlSEiKSqU2pCvD2oZiMCxfWJceASgG6Y0ZIgYBURNQKlVvv73jzJlboo5Sh+CgGHSAhCYWRQCKwaKGG8mCgAEIJCffWL/+NwMYNrFJKAYTDwDci44AFIPohgQBgYBkCNTUqObOPSyTBdnYLD537rZk4tYtUCgG3TihleUQgGKwnLFGpiAgKIHMzDsBATFkk+OUKfsENW96Y1AMph8DRCAuAlAM4hoPRAMCEiCg0WjWrftVoQhh5IKNzeIVK06q1RoJhM4nRCgGPrTQ1hIIQDFYwigjRxAQjkBBQfnIkVvJ0oK//9qzZ/8SzryILEExiGgwEIooCEAxiGIYEAQISINAYmKWu/sKIhemTdtfUaGURuj8o4Ri4M8MPcybABSDeY8vsgMB4QgolSpf3zWMXHBzW75v3xXhbIvREhSDGEcFMQlP4I/tdKwfHePZ/E+EnA6n6prhAAEQAIHmCPz66y1r68UjRmzJzy9rrq3kP4dikPwQIgGdCMT61ekA3X9i/XQyi0YgAAIWRkCt1ty7V8lO+r//zdNozG2TIztBUoZiIChQMGsCzL2GCHnzawwxnnWrEVd2mDUOJAcCIKAPgby8+y+/vKl//421tRJ+2bM+mT/sA8WgNzp0lBQB7E6Q1HAhWBAQIYGEhExX12XMroXg4OMijNDQIUExGJow7IuDABSDOMYBUYCAFAmUl9dMnryXPBDh4RF++PA1KSbSwpihGFoIEN0lQgCKQSIDhTBBQGwE0tPzyAMRFBU0evS2wsIKsQVpnHigGIzDGV5MTQCKwdQjAP8gIDkCKpU6NDTV2noxs7rg4LB0w4bfLGSTY6ODBcXQKBZUmh0BKAazG1IkBAIGJaBUqgYN+o7ciejT59usrEKDehS/cSgG8Y8RIhSCABSDEBRhAwQsisCsWQcoKkgmC1qw4KhSqbKo3BtNFoqhUSyoNDsCUAxmN6RICAQMTaCqqvbVV7ekpNw0tCOp2IdikMpIIc6WEYBiaBk/9AYBSyBw4kTOli2/W0Km+uUIxaAfN/SSGgEoBqmNGOIFAWMSUCpVCxcmy+XBCkVIZuYdY7qWkC8oBgkNFkJtAQEohhbAQ1cQMG8C164V9e27nmxynDJln3nnq3d2UAx6o0NHSRGAYpDUcCFYEDAOAY1GExd3zskplJELVlbBISEpKpUlvgFaF+BQDLpQQhvpE4BikP4YIgMQEJZAUVHlmDHbydJCp06Rp0/nCuvCzKxBMZjZgCKdJghAMTQBBtUgYJkEkpNveHpGELkwadKesrIay0She9ZQDLqzQkspE4BikPLoIXYQEJZATY3Kx2c1IxdcXL7auTNDWPvmag2KwVxHFnlxCUAxcHngDAQsnEBq6k25PHjIkO9zc0stHIXu6UMx6M4KLaVMAIpByqOH2EGg5QQ0Gs39+9VsO7/8kqNWa9g1KGsnAMWgnQ8+bRmBP7bTsX50jKfpfyLkdDhVFwYOEAAByyNQUFA+cuTWIUO+h0RoyeBDMbSEHvo2RyDWr26eFs9PrF9zEeNzEAABcyOQmJjl7r6C2bWwYsVJc0vPiPlAMRgRtgW6Yu4FRMhNv8YQ41m32nFlhwUOAlIGAYslUFmpnDEjkTwQ4ea2fP/+KxZLo+WJQzG0nCEsNE0AuweaZoNPQAAEDErg/Pnb3bpFEbkwYsSW/Pwyg3o0e+NQDGY/xCZNEIrBpPjhHAQsk4BarVm5Ms3WdgkjF+ztQ9auPaPRYJNjSy8HKIaWEkR/bQSgGLTRwWcgAALCE6ipUb388iaytNCjR3RGBr5ZShjOUAzCcISVxglAMTTOBbUgAAIGJDB58l5GMcyZc6i6utaAnizMNBSDhQ24kdOFYjAycLgDARCg6fLymsGDv0tKug4YwhKAYhCWJ6xxCUAxcHngDARAwBAE0tPzEhIyDWEZNtkExKsYoqKifHx87OzsevXqlZqayg6alDdv3ty9e3eFQtG2bdsJEyYUFhaSjxot6J1to9ZQ2TwBKIbmGaEFCICA/gRUKnVoaKq19WInp9Dr1+/pbwg9dSCg9xxK6WBc/ybbtm2zsbFZv359ZmbmrFmzHB0dc3Jy6pn75Zdf5HJ5ZGTkjRs3fvnll27duv3zn/+s16beqd7Z1rODU10JQDHoSgrtQAAEeBPIySkZMCCObHL86KN9vE2gAx8Ces+hhlUMgYGBH330EUnEz89v3rx55JQprFixomPHjqTy66+/9vLyIqeNFvTOtlFrqGyeABRD84zQAgRAQB8C8fEXnZ3DGLkgkwUtWHBUqVTpYwh9dCag9xxqQMVQU1NjZWWVkJBAspg5c+aAAQPIKVM4efKkra3tzz//rNFo8vPzBwwYMGXKlHptaJqurq4ufXzk5uZSFFVaim8qa8jJMDVQDIbhCqsgYMkESkurx41LIEsL7duvSk29aclAjJa7GBVDXl4eRVEnT/7v7d9Lly719fVtCGXHjh1OTk7W1tYURb322mtKpbJhm0WLFlHcA4qhISVD1UAxGIos7IKAhRI4cSLHx2c1kQtjx+4qLq6yUBZGT1u8iiEtLY3QCAkJ6dKlCzllChkZGR4eHsuXL79w4cLBgwefe+65iRMn1muDNYaGQIxaA8VgVNxwBgJmTqC6utbLayUjF1q1Ctu8+YKZJyyy9MSoGHS8K/Hee++NGTOG8Pzll18oivrrr79ITcOC3tk2NIUanQhAMeiECY1AAAR0JXDo0DWKCnr++Y3Z2cW69kE7gQjoPYcacB8DTdOBgYFTp04lOfr7+zfc+fj666+/9dZbpE1aWhpFUXl5eaSmYUHvbBuaQo1OBKAYdMKERiAAAk0S0Gg0lZWcO86HDl2rrVU32QEfGIyA3nOoYRUD83Tlxo0bMzMzP/nkE0dHx5s36za2zJs3b9y4cQyNuLg4a2vrdevWXb9+/cSJE7179w4MDNQOSu9stZvFp00SgGJoEg0+AAEQaJ5AUVHlm29uHzlyK75HqnlYhm+h9xxqWMVA03RUVJS3t7etrW2vXr1SUlIYFOPHjx84cCDB8vXXX3ft2lWhUHh4eLz77ru3bt0iHzVa0DvbRq2hsnkCUAzNM0ILEACBxgkkJ9/w9Ixgdi2sW/dr441Qa0QCes+hBlcMhoCgd7aGCEZ4m39sp2P96BhPEf1EyOlwqi4eHCAAAiCgM4GaGtXcuYdlsiBGLri4fIWXQOsMz4AN9Z5DoRgMOCp6mo71q5ueRfgT66dnRugGAiBgeQQuX74bEBBDnp8cMuT73Fy8REcU1wEUgyiGQZggmFsAEXIRrTHEeNYte1zZIUyCsAICIGDWBDQaTXR0ukIRwsgFG5vF4eEn1WqNWSctpeSgGKQ0Ws3Eik0DzQDCxyAAAuIlUF1dO2rUVrK04O+/9uxZbU/LizcT840MisGMxhaKwYwGE6mAgAUSGDt2F6MYpk3bX1HBeaLSAmmIMGUoBhEOir4hQTHoSw79QAAExECguLiqT59v9+27IoZgEENDAlAMDZlItgaKQbJDh8BBwDIJXLiQf+DAVXbueO8Cm4bYylAMYhuRFsQDxdACeOgKAiBgTAJqtWblyjRb2yUuLl/hUQhjkm+JLyiGltATWV8oBpENCMIBARBolEBe3v2XX95ENjlOnbq/0WaoFBsBKAaxjUgL4oFiaAE8dAUBEDAOgd27L7u6LiNyYc6cQ9XVtcZxDS8tJADF0EKAYuoOxSCm0UAsIAAC9QiUl9dMnryXaAUPj/CkpOv12uBUzASgGMQ8Ojxjg2LgCQzNQQAEjEYgPT3P13cNkQujR28rLKwwmnc4EoQAFIMgGMVhBIpBHOOAKEAABOoRqKqq9fAIZ+SCg8PSDRt+wzMR9RBJ4hSKQRLDpFuQUAy6cUIrEAAB4xPYvfsyRQX16fNtVlah8b3DoyAEoBgEwSgOI1AM4hgHRAECIMAQqKlRsVHs3n1ZqeTUsD9FWfwEoBjEP0Y6RwjFoDMqNAQBEDAogZKSqvfeS3jzze24+2BQzkY2DsVgZOCGdAfFYEi6sA0CIKAjgRMncnx8VjO7Fr777pyOvdBM/ASgGMQ/RjpHCMWgMyo0BAEQMAQBpVK1cGGyXB7MyIVWrcK2bbtoCEewaRICUAwmwW4Yp1AMhuEKqyAAAroQuHq1qG/f9eT5yeef35idXaxLR7SRCgEoBqmMlA5xQjHoAAlNQAAEBCeg0WhiY886Oi5l5IKVVfCSJSm1tWrBHcGgaQlAMZiWv6DeoRgExQljIAACuhCoqqodM2Y7WVro1Cny9OlcXTqijeQIQDFIbsiaDhiKoWk2+AQEQMBABDQazT/+Ec8ohkmT9pSV1RjIEcyanAAUg8mHQLgAoBiEYwlLIAACuhO4e7eiW7eonTszdO+CllIkAMUgxVFrImYohibAoBoEQEBYApcv3z1+PJttU63WsE9RNksCUAxmNKxQDGY0mEgFBMRJQKPRREenKxQh7u4r8vPLxBkkojIQASgGA4E1hVkoBlNQh08QsBwCBQXlo0ZtJZscp0//2XJyR6Y0TUMxmNFlAMVgRoOJVEBAbAQSE7OeemoFWy5UVCjFFiTiMSgBKAaD4jWucSgG4/KGNxCwEAKVlcoZMxKJVnB3X7F//xULyR1psglAMbBpSLwMxSDxAUT4ICBCAufP3+7WLYrIhREjtmD7ggiHyTghQTEYh7NRvEAxGAUznICA5RCorFS6uz+6E2FvH7J27Rl8F6XljH7DTKEYGjKRbA0Ug2SHDoGDgGgJbNnyO0UF9egRnZFxR7RBIjDjEIBiMA5no3iBYjAKZjgBAbMnoFJxvhJi8+YL1dW1Zp81EmyWABRDs4ik0wCKQTpjhUhBQJwEystrJk/eO2HCT+IMD1GZlgAUg2n5C+odikFQnDAGApZGID09z9d3DbPJcfv2S5aWPvJtlgAUQ7OIpNMAikE6Y4VIQUBUBFQqdWhoqrX1YkYuODgs/eGHC6KKEMGIgQAUgxhGQaAYoBgEAgkzIGBRBHJySgYMiCPPT/bu/e2VK4UWRQDJ6kgAikFHUFJoBsUghVFCjCAgKgLx8RedncMYuSCTBS1YcFSpVIkqQgQjHgJQDOIZixZHAsXQYoQwAAKWQ6CyUjluXAJZWmjfflVq6k3LSR+Z6kEAikEPaGLtAsUg1pFBXCAgQgJqtWbYsB8YxTB27K7i4ioRBomQREUAioHPcPyxnY71o2M8RfoTIafDqbrYcIAACICADgT++ut+p06Rmzdjk6MOsNAE313J7xqI9aubkkX+E+vHLym0BgEQsBgCV68WnT6dy063tpbzsib2RyiDQD0CWGOoB0TrKbPsHyEX6RpDjGfdEsiVHVpzwIcgAAKWSECj0cTGnnV0XOrpGVFUVGmJCJBziwlAMfBBiI0CfGihLQiAgEgIFBVVjhmznWxynDkzUSSBIQxpEYBi4DNeUAx8aKEtCICAGAgkJ9/w9IwgcmHSpD1lZTViCAwxSI4AFAOfIYNi4EMLbUEABExLoKZGNXfuYZksiJELLi5f7dyZYdqQ4F3SBKAY+AwfFAMfWmgLAiBgQgKXL98NCIghSwtDhnyfm1tqwnjg2gwIQDHwGUQoBj600BYEQMBUBCoqlG5uyxm5YGOzODz8pFqtMVUw8Gs2BKAY+AwlFAMfWmgLAiBgQgLffvtfigry91977txtE4YB1+ZEAIqBz2hCMfChhbYgAAJGJqDR/G8hQaPRfPPNfysqlEaOAe7MmAAUA5/BhWLgQwttQQAEjEagslI5Y0bixx//bDSPcGSBBKAY+Aw6FAMfWmgLAiBgHALnz9/u1i2K2bWwf/8V4ziFFwskAMXAZ9ChGPjQQlsQAAFDE1CrNStXptnaLmHkgr19SFzcOUM7hX2LJQDFwGfooRj40EJbEAABgxLIy7v/8subyPOTPXpEZ2TcMahHGLdwAlAMfC4AKAY+tNAWBEDAcAQSEjJdXZcRuTBnzqHq6lrDuYNlEKCN8N2VtbW1SUlJMTEx9+/fp2k6Ly+vrKzMVOj11kePAoZiMNXIwS8IgMBjAlVVtZMn7yVaoV27iKSk648/xP9BwIAE9J5DKV2Cunnzpp+fn4ODg5WV1fXrddf0rFmzpkyZoktfQ7TRO9tHwUAxGGJUYBMEQIAPAZVK/eKLsYxiGD16W2FhBZ/eaAsC+hPQew7VSTH84x//eO+992pqapycnBjFcPz48WeeeUb/eFvWU+9sH7mFYmgZf/QGARAQhMDNm8WenhEbNvzGfgGDIJZhBAS0ENB7DtVJMbi6uv7xxx80TRPFkJ2drVAotARk0I/0zvZRVFAMBh0eGAcBEGiCwM2bxfVe3YhdC02gQrUBCeg9h+qkGFxcXDIy6r4qjSiGX375xd3d3YAJaTWtd7aPrEIxaMWLD0EABAxBYOvW352dwzp0WF1aWm0I+7AJAjoS0HsO1UkxvPXWW5MnT2YUw40bN8rKyoYMGTJhwgQdgxO8md7ZPooEikHwIYFBEACBpgmUlFS9914C2eT46acHm26LT0DA4AT0nkN1Ugx5eXm+vr7+/v7W1tb9+vVzdXXt0qVLQUGBwdNqwoHe2T6yB8XQBFhUgwAICE7gxIkcH5/VRC6MHburpKRKcC8wCAK6E9B7DtVJMdA0XVlZGRsbO3369KlTp65fv76yslL34ARvqXe2jyKBYhB8SGAQBECgAQGlUrVwYbJcHszIhVatwjZvvtCgFSpAwNgE9J5DdVIMKSkptbWcl4rU1tampKQYO8vH/vTO9pEBKIbHJPF/EAABAxG4dq2ob9/1ZGnhhRdis7OLDeQLZkGAFwG951CdFINcLq93D6KwsFAul/MKUcDGemf7KAYoBgEHA6ZAAAQaECgvr2nTZjkjF6ysgkNCUlQqdYNWqAAB0xDQew7VSTHIZLI7dzjvOb9y5coTTzxhmlxb8IbLRwFDMZhq5OAXBCyGwOrVpygqqFOnyDNnbllM0khUGgQMpRhGPzzkcvmIESOY8ujRo1977TUfH59XXnnFVGz0zvZRwFAMpho5+AUBsybAfhET83WUZWU1Zp0xkpMkAb3n0GbWGCY8PGQy2dtvv82UJ0yY8OGHH4aGht69e9dUqPTO9lHAUAymGjn4BQEzJVBTo5o79/AXXySZaX5Iy6wI6D2HNqMYGEhBQUHl5eXiAaZ3to9SgGIQz1giEhCQPoHMzDsBATEUFSSTBSUn35B+QsjAzAnoPYfqpBjEBk/vbB8lAsUgthFFPCAgTQIajWbdul8VihBmk6ONzeL163+TZiqI2oII6D2H6qoYduzY8eabb/bt2zeAdZgKsN7ZPgoYisFUIwe/IGBGBAoKykeO3Eqen/T3X1vvOyPMKFekYlYE9J5DdVIMkZGRTk5O06dPt7W1nTJlytChQ52dnf/973+bCqHe2T4KGIrBVCMHvyBgLgQSE7Pc3VcQuTBt2v6KCqW5JIc8zJyA3nOoToqhS5cuW7duZX8T1cKFC6dPn24qqHpn+yhgKAZTjRz8goD0CVRV1c6YkUi0gpvb8n37rkg/LWRgQQT0nkN1UgwKheLmzZs0Tbu5uZ0/f56m6aysrNatW5sKsN7ZPgoYisFUIwe/ICB9Akqlqk+fbxnFMGLElvz8MunnhAwsi4Dec6hOiqFDhw6//Va3nad3794xMTE0TR86dMjFxcVUjPXO9lHAUAymGjn4BQGzIJCVVdimzfK1a8+wX8BgFpkhCYsgoPccqpNimDRpUlBQEE3T0dHRCoVi6NChTz755MSJE02FVu9sHwUMxWCqkYNfEJAmgby8+5mZnPfelpfj1UzSHEtE3YL3JuukGNRqNfkmqh9//HHGjBmRkZE1NSb7BwPFgGseBEDAaAQSEjJdXZf5+6/F3kajMYcjgxLQew7VSTE0GvqtWyZ7Wbre2T5KBGsMjY4oKkEABLgEystrJk/eSzY54pWOXDw4kyoBvedQfRTD7du3P/74Y3t7e1PR4pHtH9vpWD86xpPzEyGnw6m6GhwgAAIg0ASB9PQ8X981RC6MHr2tsLCiibaoBgEpEeAxh3LTakYxFBcXjx07tk2bNh4eHpGRkWq1euHChQqFonfv3szzllxrjZxFRUX5+PjY2dn16tUrNTW1kRY0XV1d/e9//7t9+/a2trYdO3bcuHFjo81IJY9sY/3qxEGjP7F+xCAKIAACIEAIqFTq0NBUa+vFjFxwcFi6YcNv2ORI+KAgdQI85lBuqs0ohqlTp3p5ec2ZM6dbt25yuXz48OGDBw8+fvw410iTZ9u2bbOxsVm/fn1mZuasWbMcHR1zcnIatn7ttdf69u2blJSUnZ195syZkydPNmzDruGRLXMDIkLOWWOI8axbeLiyg20TZRAAARCgaTonp2TAgDiytNCnz7dZWYUgAwLmRIDHHMpNuxnF0L59+6Skum9ju379ukwmmzVrFrd7M2eBgYEfffQRaeTn5zdv3jxyyhQOHDjg7OxcVFRUr17LKY9ssWVBC0d8BAIgwCVw/361m9tyRi7IZEELFhxVKlXcJjgDAckT4DGHcnNtRjFYW1vn5eUxXRQKxcWLF7ndtZ3V1NRYWVklJCSQRjNnzhwwYAA5ZQpTp0596aWXvvjii3bt2nXu3HnOnDmVlZX12tAP71yUPj5yc3MpiiotLW3YrH4NFEN9IjgHARDQRmDp0lSKCmrfflVqat1r63CAgPkRMJRikMvld+48egrZycnpxg0eX+Sal5dHURT7FsPSpUt9fX3r0X/llVfs7OxeffXVM2fO/Pzzz97e3u+//369Ng9OFy1aRHEPKIaGlFADAiDQQgIqlXrJkpTi4qoW2kF3EBAtAUMpBplMNmLEiNEPD2tr62HDhjFl5r/acTCKIS0tjTQLCQnp0qULOWUKL7/8sr29fUlJCXO6a9cumUzWcJmhurr68RJDKdYY6jHEKQiAgH4EamvVX36ZvHixrnuz9POCXiAgKgKGUgwTtB7aEeh4V+L//u//OnXqRExlZmZSFJWVlUVqGhZ4ZIu7Eg3xoQYEQOAhgWvXivr2XU9RQXJ5cFran6ACAhZCgMccyiXSzD4GbmPeZ4GBgVOnTiXd/P39G+58/OabbxQKRVnZo29z+emnn+RyecM1BmKE5vWGSygGNjiUQQAEHhLQaDRxceecnEKZTY5WVsHR0elgAwIWQkCkioF5unLjxo2ZmZmffPKJo6Mj8x2Y8+bNGzduHDM2ZWVlXl5eY8aMycjISElJ6dy58wcffKB92HhkC8WgHSU+BQHLI1BUVDlmzHby/GSnTpGnT+daHgZkbLkEeMyhXEiGXWN48AXZUVFR3t7etra2vXr1SklJYbyPHz9+4MCBJJLLly8PHTpUoVB4eXl9+umn2hcYsMZAuKEAAiDAl0By8g1PzwgiFyZN2lNWZrKvyOEbPNqDgCAExKsYBEmvnhEe2WKNoR47nIKApRKoqVF9/vlhmSyIkQsuLl/t3JlhqTCQt0UT4DGHcjkZfI2B606YMx7ZQjEIgxxWQEDyBKqqap97bh0jF4YM+T43V4cXukg+aSQAAo0Q4DGHcntDMXB54AwEQMB8CVy8WNCqVVh4+Em1WmO+WSIzEGiGgMEVw6ZNm/r37+/h4cFsXVy1atVPP/3UTFAG+5hHtlhjMNgowDAIiJ9AQUH5tWucN9Dj1UziHzVEaGgCPOZQbig6rTGsW7euTZs2ISEhCoXi+vXrNE3HxcUNGjSIa8p4ZzyyhWIw3rDAEwiIi0BiYpa7+4qePWOqq2vFFRmiAQGTEuAxh3Lj1Ekx+Pv77969m6ZpJycnRjFcvHjR1dWVa8p4ZzyyhWIw3rDAEwiIhUBlpXLGjETyQMTChcliiQxxgIAICPCYQ7nR6qQY7O3tmZsRRDFkZWXZ29tzTRnvjEe2UAzGGxZ4AgFREDh//na3blFELowYsSU//9EL4kQRH4IAAVMT4DGHckPVSTH4+/szuxaIYoiMjOzVqxfXlPHOeGQLxWC8YYEnEDAxAbVas3Jlmq3tEkYu2NuHrF17RqPBJkcTjwvci40AjzmUG7pOiiE2NtbT03Pbtm2Ojo7x8fEhISFMgWvKeGecbP/YTsf60TGejf9EyOlwqu4jHCAAAmZNIC/v/tChm8jSQo8e0RkZj75316zzRnIgwJsAZw7l01snxUDT9Lffftu+fXvZw8PLy2vDhg18vAjclpNtrF+dJtD+E+sncAQwBwIgICYCJSVVbm7LiVyYM+cQdjuKaXwQi7gIcOZQPqHpqhgYm3fv3i0oKOBj3yBtOdky9x0i5I2vMcR41q1AXNlhkDhgFARAQDQEFiw4SlFB7dpFJCXVPc+FAwRAoCkCnDm0qUaN1eukGIKCgq5du9ZYd9PUcbLFTgXTDAK8goC4CCiVqvnzjxQWVogrLEQDAuIjwJlD+YSnk2J47rnn5HJ5375916xZc+eO6W8NcrKFYuAz3mgLAuZBQKVSh4amrlyZZh7pIAsQMCYBzhzKx7FOioGm6UuXLs2fP79Dhw42NjbDhw/fsmVLRYXJtDwnWygGPuONtiBgBgRyckoGDIijqCAbm8Vnz/5lBhkhBRAwJgHOHMrHsa6Kgdg8ceLEtGnT3NzcnnjiCVJp5AInWygGI9OHOxAwKYH4+IvOzmHMJkeZLGjt2jMmDQfOQUB6BDhzKJ/weSuGc+fOzZkzx9PTUyxvcIJi4DPeaAsC0iVQWlo9blwCeSCifftVqak3pZsOos1P0gAAIABJREFUIgcBUxEwuGK4ceNGSEiIv7+/lZXV4MGD169fX1JSIopsoRhMNQzwCwJGJHDiRI6Pz2oiF8aO3YXvlDIifrgyKwKGVQz9+vWTy+U9evRYvnz5rVu3TE6Oky0Ug8nHAwGAgCEJKJWqhQuT5fJgRi60ahW2efMFQzqEbRAwcwKcOZRPrjrdlZg/f/6lS5f4mDVsW062UAyGhQ3rIGBiAuXlNb6+axi58MILsdnZxSYOCO5BQOIEOHMon1x0Ugx8DBqjLSdbKAZjIIcPEDAlgfT0PIUiJCQkRaVSmzIO+AYBsyDAmUP5ZKRNMcyePbu8vJym6dlNHHwcCdmWky0Ug5BoYQsEREGgqKjyzz85O6UKCup+F+EAARBoOQHOHMrHnDbFMGjQoOLiugXAQU0cfBwJ2ZaTLRSDkGhhCwRMTyA5+YanZ0S/fhtqa7GiYPrhQATmR4Azh/JJT5ti4GPHqG052UIxGJU9nIGAAQnU1Kjmzj0skwUxuxZCQlIM6AymQcBSCXDmUD4QdFIM77///v3799lmy8vL33//fXaNMcucbKEYjIkevkDAYAQyM+8EBMSQ5yeHDPk+N7fUYN5gGAQslwBnDuWDQSfFIJfL631l5d27d62srPg4ErItJ1soBiHRwhYImICARqOJjk5XKEIYuWBjs3jFipNqtcYEocAlCFgAAc4cyiffZhRDaWlpSUmJTCa7du1a6ePj3r1733//vYeHBx9HQrblZAvFICRa2AIBYxMoKCgfNWorWVrw91+Lr4ow9hjAn4UR4MyhfHJvRjHIZDJ5Y4eVlVVISAgfR0K25WQLxSAkWtgCAaMSKC6uats2nMiFadP2V1QojRoBnIGA5RHgzKF80m9GMRw/fvzYsWMymSwhIeH44yMtLS0vL4+PF4HbcrKFYhCYLsyBgFEJfPLJAYoKcnNbvm/fFaM6hjMQsFQCnDmUD4RmFANj6ubNmxqNiO4pcrKFYuAz3mgLAmIjUFVVO3NmYn5+mdgCQzwgYK4EOHMonyS1KYYLFy6o1XXPQ19o4uDjSMi2nGyhGIREC1sgYFgCarVm5cq0b775r2HdwDoIgEDTBDhzaNPNGn6iTTHIZDLmEQlmN4OMe8jl8obmjFPDyRaKwTjQ4QUEWkwgL+/+yy9voqgge/uQzMw7LbYHAyAAAvoQ4MyhfAxoUwzkZsTNJg4+joRsy8kWikFItLAFAoYikJCQ6eq6jGxyjIw8bShPsAsCIKCVAGcO1dqy3ofaFEO9puI55WQLxSCegUEkINAYgfLymsmT9xKt0K5dRFLS9cYaog4EQMAYBDhzKB+HOimG7777bv/+/YzZuXPnOjs7/7//9/9u3rzJx5GQbTnZQjEIiRa2QEBgAunpeeS7qikqaPTobYWFFQL7gDkQAAE+BDhzKJ+OOikGX1/fo0eP0jSdlpamUCi++eabUaNGjR49mo8jIdtysoViEBItbIGAYARUKnVoaKq19WJmdcHBYemGDb+J6qkrwVKFIRCQFAHOHMoncp0Ug0KhyMnJoWn6888/HzduHE3Tly5datOmDR9HQrblZAvFICRa2AIBwQiUllZ7e69i5EKfPt9mZRUKZhqGQAAEWkCAM4fysaOTYnBzczt79ixN0z179vz+++9pmr527ZqjoyMfR0K25WQLxSAkWtgCASEJpKbetLFZvGDBUaVSJaRd2AIBEGgBAc4cyseOToph7NixvXr1mjRpkoODQ2Fh3R8Ke/bs6datGx9HQrblZAvFICRa2AKBFhEoLa2+fZvzLqY//yxpkUV0BgEQEJoAZw7lY1wnxVBcXDx9+vTXXnvtwIEDjPEvv/wS3yvBhzPagoD5EzhxIsfHZ/Xgwd/hayfNf7CRoZQJGFYxiI0MJ1usMYhteBCP5RFQKlULFybL5cHMroXw8JOWxwAZg4BkCHDmUD5R67TGQNN0cXFxeHj4pEmTPvjgg4iIiJISU640crKFYuAz3mgLAoITuHq1qG/f9eR1Cy+8EJudXSy4FxgEARAQigBnDuVjVCfFkJ6e3rp1a09Pz9GjR//zn//08vJydXX97bff+DgSsi0nWygGIdHCFgjwIKDRaGJjzzo6LmXkgpVVcEhIikpV92U0OEAABERLgDOH8olSJ8XwwgsvTJgwoba2lrFcW1s7fvz4F198kY8jIdtysoViEBItbIGArgSKiirHjNlOlhY6dYo8c+aWrp3RDgRAwHQEOHMonzB0Ugz29vaXL19mm83IyFAoFOwaY5Y52UIxGBM9fIHAQwL37lV6ea0kcmHSpD1lZTVgAwIgIAkCnDmUT8Q6KQZ3d/dDhw6xzR48eNDd3Z1dY8wyJ1soBmOihy8QeEzgww/rvirCxeWrnTszHtfh/yAAAhIgwJlD+cSrk2KYMWOGl5fXtm3b/vzzz9zc3Pj4eC8vr1mzZvFxJGRbTrZQDEKihS0Q0JVAeXnNpEl7cnNLde2AdiAAAuIgwJlD+YSkk2KoqamZOXOmra2t/OFhZ2f3ySefVFdX83EkZFtOtlAMQqKFLRBonIBGo4mOTv/hhwuNf4xaEAAB6RDgzKF8wtZJMTAGKyoqfv/99wsXLlRUmPir5zjZQjHwGW+0BQE9CBQUlI8atZWigpycQq9dK9LDArqAAAiIhwBnDuUTVjOKoaKiYtq0ae3atXNzc3vnnXfu3r3Lx7ih2nKyhWIwFGbYBYE6AomJWU89tYJscly9+hS4gAAISJoAZw7lk0kziuGzzz5zcHCYPHnyjBkz2rRpM2bMGD7GDdWWky0Ug6Eww66lE6isVM6YkUi0gpvb8n37rlg6FOQPAtInwJlD+aTTjGLo2LFjfHw8Y/DMmTPW1tYqlem/g46TLRQDn/FGWxDQkcCFC/ndukURuTBixJb8fM5XTOloB81AAATERoAzh/IJrhnFYGNjc+vW/97KYm9v/+eff/Kxb5C2nGyhGAzCGEYtl4BarVm5Ms3WdgkjF+ztQ9auPaPRaCyXCDIHAfMiwJlD+aTWjGKQy+V37twhBp2cnG7cuEFOTVXgZAvFYKphgF8zJXDvXqWHRzgjF7p3j750qcBME0VaIGChBDhzKB8GzSgGmUw2YsSI0Y8Pa2vrYcOGPT4bzceRkG052UIxCIkWtkCgjsDhw9fk8uA5cw5VVz96Nzy4gAAImA0BzhzKJ6tmFMMErQcfR0K25WQLxSAkWtiyUALl5TWFhZynpq9exVOUFnoxIG2zJ8CZQ/lk24xi4GPKeG052UIxGA88PJkngfT0PF/fNSNGbMFmBfMcYGQFAlwCnDmU+5H2MygG7XzwKQiYMwGVSh0ammptvZjZtRAV9as5Z4vcQAAEHhKAYvDElQACIMCLQE5OyYABceT5yT59vs3KKuRlAY1BAASkSACKAYpBitctYjYZgfj4i87OYYxckMuDFyw4qlSa/lUrJsMBxyBgSQSgGKAYLOl6R64tIFBaWj1uXAJZWmjfflVq6s0W2ENXEAABiRGAYoBikNgli3BNQqCwsKJDh9VELowdu6u4uMokkcApCICAqQgYXDFs2rSpf//+Hh4eN2/W/TmyatWqn376SRTZ4lkJUw0D/EqTwHvv1S0wtGoVtnkzvrpamkOIqEGgZQQMqxjWrVvXpk2bkJAQhUJx/fp1mqbj4uIGDRrUspj1783JFopBf5DoaYkESkqq3nlnZ3Z2sSUmj5xBAARomjOH8gGi09OV/v7+u3fvpmnaycmJUQwXL150dXXl40jItpxsoRiERAtb5kZAo9HExZ3btSvT3BJDPiAAAvoS4MyhfIzopBjs7e2ZmxFEMWRlZdnb2/NxJGRbTrZQDEKihS2zIlBUVDlmzHaKCnryya/+/LPErHJDMiAAAvoS4MyhfIzopBj8/f2ZXQtEMURGRvbq1YuPIyHbcrKFYhASLWyZD4Hk5BuenhFkk+PKlWnmkxsyAQEQaAEBzhzKx45OiiE2NtbT03Pbtm2Ojo7x8fEhISFMgY8jIdtysoViEBItbJkDgZoa1dy5h2WyIEYuuLh8tXNnhjkkhhxAAASEIMCZQ/kY1Ekx0DT97bfftm/fXvbw8PLy2rBhAx8vArflZAvFIDBdmJM2gcuX7wYExJClhSFDvs/NLZV2SogeBEBAUAKcOZSPZV0VA2Pz7t27BQUFfOwbpC0nWygGgzCGUekR0Gg00dHpCkUIIxdsbBaHh59UqzXSywQRgwAIGJIAZw7l44ifYuBj2YBtOdlCMRiQNExLiUBhYUWbNssZueDvv/bcudtSih6xggAIGIsAZw7l41QnxeDj49OhsYOPIyHbcrKFYhASLWxJm8BPP12mqKBp0/ZXVCilnQmiBwEQMBgBzhzKx4tOimE161ixYsXYsWNbt24dFhbGx5GQbTnZQjEIiRa2JEagslJZUsJ5zfPvv+dLLAeECwIgYFwCnDmUj2udFENDg2vXrp0wYULDeuPUcLKFYjAOdHgRH4ELF/K7dYsaM2a7RoPNCuIbHkQEAmIlwJlD+QSpp2K4fv36E088wceRkG052UIxCIkWtqRBQK3WrFyZZmu7hNm1EBd3ThpxI0oQAAEREODMoXzi0VMxLFu2zNvbm48jIdtysoViEBItbEmAQF7e/Zdf3kSen+zRIzoj444E4kaIIAAC4iDAmUP5hKSTYujZs2fA46Nnz55t27a1srL65ptv+DgSsi0nWygGIdHCltgJJCRkurouI3JhzpxD1dW1Yg8a8YEACIiJAGcO5ROYToohiHUsXrw4Ojr68uXLfLwI3JaTLRSDwHRhTqQEystrJk/eS7RCu3YRSUl1XySLAwRAAAR4EeDMoXx6Nq8Yamtrv/vuu9u3RfRsNydbKAY+4422EiVw5065r+8aIhdGj95WWFgh0VwQNgiAgGkJcOZQPqE0rxhomlYoFMx3V/Kx/KhtVFSUj4+PnZ1dr169UlNTtVg4ceKElZVVjx49tLRhPuJkC8XQLC80kD4BjUYzevQ2igpycFi6YcNveDhC+kOKDEDAZAQ4cyifKHRSDIMGDdq9ezcfs4/abtu2zcbGZv369ZmZmbNmzXJ0dMzJyWnUTklJSceOHYcNGwbF0CgfVIJAYWHFa6/FZ2UVAgUIgAAItISAYRXD9u3bO3bsuGbNmrS0tAuso9mIAwMDP/roI9LMz89v3rx55JRdePvtt//zn/8sWrQIioGNBWVLJhAffzExMcuSCSB3EAABQxAwlGJ4//33S0tLma+sJP+Vy+UymUwul2vPpKamxsrKKiEhgTSbOXPmgAEDyCkpxMbG9u7du7a2VotiqK6uLn185ObmUhRVWvrwG/lwV4JwRMFcCJSWVo8bl0BRQW5uy/Pzy8wlLeQBAiAgCgKGUgxyubygoOBmE4f21PPy8iiKOnnyJGm2dOlSX19fcsoUsrKy3N3dr1y58uBUi2JYtGgRxT2gGOqRxKl5EDhxIsfHZzXZ5BgRkWYeeSELEAABkRAwlGKQyWR6f701oxjS0v73+y4kJKRLly5sZCqVqnfv3tHR0UylFsWANQY2N5TNkoBSqVq4MFkuD2bkQqtWYZs3XzDLTJEUCICACQkYUDHcuaPn6+R0uStRXFxMUZTV40MmkzGnR48e1UKTky3uSmghhY+kQ+Dq1aK+fdeTpYUXXojNzi6WTviIFARAQDIEOHMon6ibeVZCJpM9+eSTLk0czToKDAycOnUqaebv719v56Narb7IOqZOndqlS5eLFy+Wl5eTXg0LnGyhGBoCQo2kCGg0mtjYs46OSxm5YGUVHBKSolKpJZUEggUBEJAMAc4cyifq5hVDZGTkd00czTpinq7cuHFjZmbmJ5984ujoyLzXYd68eePGjWvYXctdCXZjTrZQDGw0KEuQQEFBubNzGCMXOnWKPH06V4JJIGQQAAHJEODMoXyibl4x6L2PgQkjKirK29vb1ta2V69eKSkpTOX48eMHDhzYME4ohoZMUGMJBOLjL1JU0KRJe8rKaiwhX+QIAiBgQgKGUgzMsxImTKxR15xsscbQKCNUiptATY2qvJwjDs6cuSXukBEdCICAmRDgzKF8cjL4GgOfYHRty8kWikFXbGgnFgKXL9/t1eub8eP1eY+qWHJAHCAAApIlwJlD+WTRjGLgY8p4bTnZQjEYDzw8tZSARqOJjk5XKEKYXQs//nippRbRHwRAAAR4EuDMoXz6QjHwoYW2INACAnfulI8atZU8P+nvv/bs2b9aYA9dQQAEQEAfAlAMnvpgQx8QMBaBAweuPvXUCiIXpk3bX1GhNJZz+AEBEACB/xGAYoBi+N/VgJKoCFRWKmfOTCRawc1t+b59de9ExwECIAACJiEAxQDFYJILD06bIVBQUP7ss+uIXBgxYgu+WaoZZPgYBEDAwASgGKAYDHyJwbxeBNRqzSuv/EBRQfb2IWvXntFoNHqZQScQAAEQEIwAFAMUg2AXEwwJS+Cvv+4PHbopI0PP72cRNhhYAwEQAAEoBigG/CsQC4Hduy8fO5YtlmgQBwiAAAhwCUAxQDFwrwicmYJAeXnN5Ml7KSrI0zOiqKjSFCHAJwiAAAg0QwCKAYqhmUsEHxuaQHp6nq/vGrLJMSIizdAeYR8EQAAE9CAAxQDFoMdlgy7CEFCp1KGhqdbWixm54OCwdMOG37DJURi4sAICICA0ASgGKAahrynY041ATk7JgAFxZGmhd+9vr1wp1K0rWoEACICACQhAMUAxmOCyg8v4+IvOzmGMXJDJghYsOKpUqoAFBEAABMRMAIoBikHM16d5xnb7dpmj41JGLrRvvyo19aZ55omsQAAEzIsAFAMUg3ld0RLJZsOG3ygq6J13dhYXV0kkZIQJAiBg6QSgGKAYLP3fgHHyVypVVVW1xJdGo0lOvkFOUQABEAAB8ROAYoBiEP9VKvkIr14t6tt3/bRp+yWfCRIAARCwYAJQDFAMFnz5Gz51jUYTG3uW7FrAl08aHjk8gAAIGIoAFAMUg6GuLdgtKqocM2Y7eX6yU6fIM2duAQsIgAAISJQAFAMUg0QvXbGHnZx8w9MzgsiFSZP2lJXViD1oxAcCIAACTROAYoBiaPrqwCd6EaipUc2de1gmC2LkgovLVzt3ZuhlCZ1AAARAQEQEoBigGER0OZpBKAUF5QEBMWRp4aWXvr91q9QM8kIKIAACIADFAMWAfwVCElCp1My7n21sFoeHn1SrNUJahy0QAAEQMB0BKAYoBtNdfWbqOSenpH//jefO3TbT/JAWCICAhRKAYoBisNBLX8C0ExOzTp3KZRvE90+yaaAMAiBgHgSgGKAYzONKNk0WlZXKGTMSKSqoQ4fVpaXVpgkCXkEABEDAKASgGKAYjHKhmaOT8+dvd+sWRTY5rlyZZo5ZIicQAAEQeEQAigGKAf8YeBNQqzUrV6bZ2i5h5IK9fUhU1K+4E8GbIzqAAAhIigAUAxSDpC5YEQSbl3f/5Zc3kaWFHj2iMzLuiCAuhAACIAAChiUAxQDFYNgrzMysJyRkurouI3JhzpxD1dX/+0ZKM0sW6YAACIAAmwAUAxQD+3pAWRuBvLz7dnaP7kS0axeRlHRdW2t8BgIgAALmRQCKAYrBvK5oA2fz9denKSpo9OhthYUVBnYF8yAAAiAgLgJQDFAM4roixRaNSqVWKlUkKo1Gs3//FWxyJEBQAAEQsBwCFqkYVnnQMZ50hJwOp+oKOECgCQI5OSUDBsTNnXu4ic9RDQIgAAIWRMAiFUMIVacVmJ9YPwsabaTKh0B8/EVn5zBmk+ORI9iywIcd2oIACJgjAYtUDEtldUsLMZ50rB99ZYc5DityahGB0tLqceMSyAMR7duvOnEip0UW0RkEQAAEpE/AIhXDKg/pDxwyMBSBEydyfHxWE7kwduyu4uIqQzmDXRAAARCQDgEoBumMFSI1MAGlUrVwYbJcHszIhVatwjZvvmBgnzAPAiAAApIhAMUgmaFCoAYlUFBQ3rfverK08MILsdnZxQb1COMgAAIgIC0CUAzSGi9EaygCSqUqMLBOMVhZBYeEpKhUakN5gl0QAAEQkCYBKAZpjhuiNgCBq1eLevaMOXPmlgFswyQIgAAISJ4AFIPkhxAJ6E0gOfnGuXO32d3xaiY2DZRBAARAgE0AioFNA2VLIVBTo5o797BMFuTnt7aiQmkpaSNPEAABEGgBASiGFsBDV2kSuHz5bkBADNnkuHr1KWnmgahBAARAwKgEoBiMihvOTEtAo9FER6crFCGMXLCxWRweflKt1pg2KngHARAAAUkQgGKQxDAhSAEIFBSUjxq1lSwt+PuvrbeJQQAfMAECIAAC5ksAisF8xxaZsQgkJmY99dQKIhemTduP7QssPCiCAAiAQPMEoBiaZ4QWUieQm1tqY7OYkQtubsv37bsi9YwQPwiAAAgYnwAUg/GZw6MJCISF/UJRQcOHb87PLzOBe7gEARAAAekTgGKQ/hgig8YIqNUa9nsbVSr19u2X8LqFxlChDgRAAAR0IgDFoBMmNJIWgby8+y+/vGnRomPSChvRggAIgICYCUAxiHl0EJs+BBISMl1dl1FUkFwefPLkn/qYQB8QAAEQAIEGBKAYGiBBhWQJlJfXTJ68lzwQ4eERfvx4tmSzQeAgAAIgIC4CUAziGg9EozeB9PQ8X981RC6MHr2tsLBCb2voCAIgAAIgUI8AFEM9IDiVHgGVSh0ammpt/ej5SQeHpRs2/IZNjtIbSEQMAiAgbgJQDOIeH0TXHIGCgvIBA+LI0kKfPt9mZRU21wmfgwAIgAAI8CYAxcAbGTqIikBVVW337tEUFSSTBS1YcFSpVIkqPAQDAiAAAmZDAIrBbIbSchO5dKmgS5c1qak3LRcBMgcBEAABwxOAYjA8Y3gQmsCJEzkZGXfYVtkva2LXowwCIAACICAUASgGoUjCjjEIKJWqhQuT5fLgHj2iq6trjeESPkAABEAABB4SgGLAhSAZAteuFfXtu55scvz669OSCR2BggAIgID0CUAxSH8MLSADjUYTF3fOySmUkQtWVsEhISm4E2EBI48UQQAEREQAikFEg4FQGiVQVFQ5Zsx2srTQqVPkmTO3Gm2JShAAARAAAcMRgGIwHFtYFoDA0aM3PD0jiFyYNGlPWVmNAHZhAgRAAARAgCcBKAaewNDciARyckrImxxdXL7auTPDiM7hCgRAAARAgEMAioGDAydiI7BwYTJFBQ0Z8n1ubqnYYkM8IAACIGBRBKAYLGq4JZCsRqNRqzUkUKVS9d1359g15CMUQAAEQAAEjEkAisGYtOGrGQIFBeWjRm1dvvxEM+3wMQiAAAiAgNEJQDEYHTkcNkEgMTHrqadWUFSQjc3i3377q4lWqAYBEAABEDANASgG03CHVzaBykrljBmJ5IEIN7flR45cZzdAGQRAAARAwOQEoBhMPgSWHsD587e7dYsicmH48M35+WWWDgX5gwAIgID4CEAxiG9MLCYitVqzcmWare0SRi7Y24esWXNGo/nftkeLIYFEQQAEQEACBKAYJDBIZhninTvlQ4duIksL3btHX7pUYJaZIikQAAEQMA8CUAzmMY7Sy6K8vMbXdw2jGObMOYQvopTeECJiEAABCyMAxWBhAy6mdP/73zwfn9VJSdjkKKZRQSwgAAIg0AQBKIYmwKDaAATS0/OuXStiG1YqVexTlEEABEAABERLQLyKISoqysfHx87OrlevXqmpqQ0J7tq1a+jQoW3atHniiSf69et38ODBhm3q1TzKdpVHvXqcGpqASqUODU21tl7ct+96qARD04Z9EAABEDAEAZEqhm3bttnY2Kxfvz4zM3PWrFmOjo45OTn18p81a9ayZct+/fXXrKys+fPn29jYnD17tl6beqdQDPWAGOc0J6dkwIA4sslx3bpfjeMXXkAABEAABAQkIFLFEBgY+NFHH5E8/fz85s2bR04bLXTt2jU4OLjRj0glFANBYbRCfPxFZ+cwRi7IZEELFhzFGoPR4MMRCIAACAhIQIyKoaamxsrKKiEhgeQ5c+bMAQMGkNOGBbVa/fTTT69Zs6bhR9XV1aWPj9zcXIqiSnFXoiEmA9SUllaPG5dAlhbat1+VmnrTAH5gEgRAAARAwBgExKgY8vLyKIo6efIkAbB06VJfX19y2rCwfPny1q1bFxQ08kD/okWLKO4BxdAQoOA1J0/+2aHDaiIXxo7dVVxcJbgXGAQBEAABEDAaAfEqhrS0NEIhJCSkS5cu5LReYevWrQ4ODklJSfXqmVOsMTSKxaCV2dnF1taLGbnQqlXY5s0XDOoOxkEABEAABIxAQIyKgdddiW3btikUiv379+sC61G2uCuhC6yWtZk9+yBFBT3//Mbs7OKWWUJvEAABEAABURAQo2KgaTowMHDq1KmEkL///2/vPOCiONo/vsBxhaMIqEgxYEGKiAFrTBQTIZDY86oxKp4aC6CA5a8hTUgUOyW+okYFjFGjRlAxViJYQAULinL0Hj01KhiKHMLNXx2dd3N3HMfBwR08+8nHPDvlmWe+M+z+bnd2107qysf9+/ez2ewjR46QkrINUAyy+TQnV/R6Ix6eP38REZH64kU9SQEDCAABIAAE1JqAiioG/HRlZGQkn89fvHgxl8stKnq1aC4gIMDT0xMT379/P4PBiIiIELzdysvLZQ8GKAbZfBTOffKketKkQ1u2pCjsASoCASAABICAihNQUcWAEIqIiLC0tGQymc7OzhcuXMAceTyei4sLtl1cXP69opHi8XiycYNikM1HsdyEhAJz8xCKCmKzV8PXpBRjCLWAABAAAqpPQHUVgzLYgWJoWapCYd3y5Wc1NILwIkdDw3VnzuS1bBPgDQgAASAABFSEACgGFRkI9QuDz3/k5LSdPD/50Ue/lJY+U79uQMRAAAgAASAgHwFQDPJxglI0AiKRaOvWVA5nNZYL2to/btqUXF8vohUBEwgAASCouek2AAAgAElEQVQABNobAVAM7W1Eld2fx4+rxozZTy4t2NltuXnzvrIbBf9AAAgAASDQ5gRAMbT5EKhZAOXlzy0tw7Bi8PH5o6qqVs06AOECASAABICAQgRAMSiErWNXunSp2NR00/Hj2R0bA/QeCAABINCxCIBi6FjjrVhvb90SlJT8610Xz5+/UMwV1AICQAAIAAE1JQCKQU0HrpXCrq8XhYZeZjJXubhE19XBCxxbCTs0AwSAABBQQQKgGFRwUFQlpHv3/nFz20MWOe7YcV1VIoM4gAAQAAJAoNUJgGJodeRq0mBsLN/YeD2RC8uWnampgTsRajJ4ECYQAAJAQAkEQDEoAaqau6ysFM6bF0e0gplZSHx8vpr3CcIHAkAACACB5hIAxdBcgu2s/rVr9/r0+S+RC599dvDx46p21kfoDhAAAkAACChAABSDAtDabZX8/KcMxo9YLnC5wZGRN0UieJNjux1u6BgQAAJAoEkEQDE0CVf7L7xgwXGKCho0aEdOzuP231voIRAAAkAACMhNABSD3Kg6RsHKSuGmTcm1tXUdo7vQSyAABIAAEJCXACgGeUm1y3LPntV4esZGRd1sl72DTgEBIAAEgEALEgDF0IIw1cxVcnJJjx7hFBWkq7smN/eJmkUP4QIBIAAEgEDrEgDF0Lq8VaO1Fy/qV65M0NT8AS9y1Ndfe+pUrmqEBlEAASAABICAihIAxaCiA6O8sPLyngwZspM8P/nBB1GFhWXKaw48AwEgAASAQPsgAIqhfYyjXL0QiUTR0Wm6umuwXNDS+mH16gvwtQi52EEhIAAEgECHJwCKoaNMgadPqydNOkQuLfTq9VNKyl8dpfPQTyAABIAAEGg2AVAMzUaoJg4eP64yMwvBiuHLL49VVAjVJHAIEwgAASAABFSCACgGlRiG1gkiPj7f2Hj94cMZrdMctAIEgAAQAALtiQAohvY0muJ94fMfPXhQQU/9558a+i7YQAAIAAEgAATkJACKQU5QalZMJBJt23aNw1n9ySd74dsQajZ4EC4QAAJAQCUJgGJQyWFpXlAPH1aOHbufLHKMjk5rnj+oDQSAABAAAkAAgWJob5Pg1KlcE5ONRC74+PxRVVXb3joJ/QECQAAIAIFWJwCKodWRK63B6upaP7+TRCt06bLh+PFspbUGjoEAEAACQKBjEQDF0E7GOz39gYPDViIXPv10n9iax3bST+gGEGjXBOrr65/DBgRUgEB9fb3knxooBkkm6peSm/uEyVyF5QKbvXrLlhRY7ah+owgRd3gCQqEwKyuLDxsQUAECWVlZQqH4a3tAMbSTo5SnZyxFBfXvvy0j41E76RJ0Awh0JAIikaioqCg3N7eqqkoFfmFCCB2aQFVVVW5ublFRkdiPT1AM7eSY9OxZzY8/nq+pedFO+gPdAAIdjEBtbS2fzy8vL+9g/YbuqiiB8vJyPp9fW/uvhfOgGFR0tGSHVVkpnDcv7sCBO7KLQS4QAALqQuD58+d8Pr+6ulpdAoY42zeB6upqPp///PlzejdBMdBpqId97dq9Pn3+S1FBnTqtKymBXyTqMWoQJRCQTQArBrEDtOwqkAsElEdA6oQExaA84C3vua6ufs2aiwzGj3iRo45O8B9/wPOTLc8ZPAKB1icg9QDd+mFAi0AAE5A6IUExqM30KC4uHzEimjw/OWjQjpycx2oTPQQKBICATAJSD9Aya0BmCxB4/Phxly5dCgsLW8CXGrpIT083NzevrKyUjF3qhATFIAlKFVN+++2OgcFaLBc0NIK+/fZcbW2dKgYKMQEBIKAQAakHaIU8NbcSj8ejXm9aWlrdu3f38vJ6+vQp3WlycvInn3zSqVMnFovl4OCwadOmurp/HY4SEhI++eQTIyMjDodjZ2e3dOnSv/76i+5Bdexly5bNmTNHLB43NzdNTc0rV67Q011cXPz9/ekpR44coSiKpAiFwvXr1zs6OnI4HGNj42HDhkVFRYmtHCSFm2QUFxePGTNGR0fH2NjY19dX8qFH7C0vL2/ChAmdO3fW09ObPHnygwcPSCtPnz6dMWOG/uttxowZZWVlJGvixImrVq0iu8SQOiFBMRA+Kmo8e1aDn5zEcuGdd8IuXixS0VghLCAABBQlIPUAraizZtXj8XgeHh4CgaC0tPTMmTPm5uZTp04lHmNjYxkMxrx589LS0goLC3fu3GloaDhp0iTyGN727ds1NTVnz56dmJhYWFh44cKFL7/8csmSJcRDixgNnTWb5Ly6urpTp06XL1+m1youLtbV1fXz85s7dy49XbZiEAqFI0eONDQ03LJlS1paWn5+/r59+5ycnNLSmvtZn7q6OgcHhw8//PDmzZvx8fFmZmaLFi2iB4btysrKnj17Tpw4Mf31Nn78+EGDBpG3MHl4eDg4OFx+vTk4OIwZM4Z4iIuLMzMzE9N8CCGpExIUA+GmooZAUNG58wYsF7744nBZ2b9Wrqpo0BAWEAACTSQg9QDdRB8tU5zH440fP574Wrp0qZGREd6trKw0Njb+7LPPSC5CKC4ujqKoAwcOIIRKS0uZTObixYvpBRBC9B+1JKusrGzevHldu3ZlsVh9+/Y9fvz4y6zAwMD+/fuTMmFhYZaWlngXB7ZmzRpTU1NLS8uAgIAhQ4aQkgihfv36rVy5EqdERUXZ2tqyWCwbG5uIiAh6MWLHxMR07tyZ7GIjKCho6tSpmZmZenp69Mv1shXD+vXrNTU1b968SfdWW1tL90DPkt8+efKkpqbmvXv3cJXffvuNxWI9e/ZMzMOZM2c0NTVJ+tOnTymKio+PRwjx+XyKoq5evYqrXLlyhaKorKwsvCsUClks1rlz58QcSp2QoBjEKKni7rFjWfr6a/fuva2KwUFMQAAItAQB8QP0rwPQdnOl/PfrANnx0hVDfn6+vb29iYkJrhIb+/JNcZTYj3KEUJ8+fbDICA0NpSjq/v37sptACNXX1w8dOrRv375nz57Nz88/fvz4yZMnX9aSrRh0dXU9PT3v3r175/VGUVReXh5u6+7duxRFZWe/Wgy+Y8cOU1PTmJiYgoKCmJgYIyOj3bt3S4bk7+/v4eFBTxeJRJaWln/88QdCaMCAAVFRUSRXtmJwdHT8+OOPSWEZRnFxMbeBbcGCBZIVv//+e0dHR5KOpUBCQgJJwUZcXJyWllZNTQ3era6u1tTUDAwMRAhFRkYaGBjQyxsYGNC7Nnjw4KCgIHoBuMbwisYbfRRmKoZG1XZzc588flxFj+rJE3hKm84DbCDQ3giIK4bt5mgTpZT/tpvLZsfj8bS0tLhcLpvNxgsaQkNDcZV169ZRFCV5wWDcuHF2dnYIIW9vb319fdn+cS7+TYxP8PTyshWDiYkJ/X6Eo6Pjjz/+iKt//fXXgwYNwnb37t33799P3K5ateq9994ju8QYP3682CKGs2fPdunS5cWLV6/CCwsLe//990lh2YqBw+H4+fmRwjKMFy9e5DawPXz4ULLivHnz3Nzc6OlMJpPeO5z16NEjfX19f3//qqqqysrKhQsXvpRu8+fPRwgFBwdbW1vTPVhbW69Zs4akTJw4cdasWWQXG+IT8nUqXGMQo9TGuyKRKCrqJpcb/J//HCT3Bds4JmgeCAAB5RMQP0C36TUGV1fX3Nzc27dv+/r6uru74zMoQggrBrGFkAihsWPH2tvbI4S8vLzEfs42RG79+vXvvPOOZK5sxeDq6kqvsn79ehsbG4SQSCSysrIKDw9HCD169IiiKA6HQ37Js1isrl270iti++OPP/bx8aGnf/7552SVwIMHDxgMBrl6L1sxsNlssXWRdLfNsefNmyd29UJbW/u3336T9HnmzJmePXtqaGhoaWnNmDHD2dnZ29sbK4Y+ffrQy/fu3Xvt2rUkZdq0aVOmTCG72BCfkK9TQTGIUWrL3SdPqidNOkSen9y3L70to4G2gQAQaEUCUg/Qrdj+/5qi35VACI0cOfK7777D2fiuRHJy8v9Kv7asra2beldi8+bNUhXDDz/8QL8Iv2HDBrF1DPSmS0tLNTQ0bty4kZSUpKWlhZ8OePDgAUVRe/fupf+SLygooFfE9rRp07744guS/uTJExaLpampqfV2oyhqxYoVuMDYsWPFfohHR0eTCyptfleC9OLvv//GF4FMTEw2bNggz10JDw+PhQsXEg/YkDohQTGIUWqz3YSEAnPzECIXvvzyWEWF+HfD2iw4aBgIAAElE5B6gFZym9LdiymGxMRENpuNV95VVlYaGRmJrXw8duwYWflYUlIi58rH8+fPa2pqSt6V2Lp1a9euXckV1mnTpslQDAghFxeXpUuXent7u7u7k/6Ym5uTuxUkUdLYuHEjfZXl5s2be/XqhVdI4H/Dw8NNTEzwJZbly5c7ODjQnfj4+JD7IOvWrZNc+fjixQvJlY9NvSuBVz6SpSEHDhyQuvKRHhhC6Ny5cxoaGvgCCV75mJKSgstcvXqVvvIRIWRhYbFr1y4xD1InJCgGMUptsCsU1i1fflZDIwjLBUPDdYcPZ7RBHNAkEAACbUdA6gG6TcIRUwx4DSD5Dfr7779raWnNmzfv9u3bhYWFu3btEnu6MiIiQkNDY86cOefPny8qKkpKSpo/f/7SpUsl+zJy5EgHB4ezZ88WFBScPHny1KlTeGG/hobGunXr8vLytmzZYmhoKFsx7Nixw8zMrHPnzr/++itpYufOnRwOJzw8PDs7Oz09PSoqKiQkhOQSIz09ncFgkJss/fv3/+qrr0guQuiff/5hsVhHjx5FCBUWFnI4HB8fn1u3bmVnZ2/ZsoXFYh06dAiXr6mpGT58OH668tatW/n5+QcPHnR2dm6ppytHjRp18+bNP//808LCgtw3+euvv2xsbIgUiIqKunLlSl5e3q+//mpkZERn7uHh4ejoeOX11q9fP/rTlYWFhRoaGkVF4g/tS52QoBjo06MN7MzMv52ctpNLCx999EtpqfhjM20QFjQJBIBA6xKQeoBu3RDetCapGPbt28dkMktKSnCJixcvenh4GBgYMJlMe3v7TRJvcIqPj3d3dzc0NGSz2ba2tv/3f/9HfiLTe/TkyZPZs2cbGxuz2WwHBwf8hAJCaNu2bd27d+dyuTNnzgwODpatGMrKylgslo6OTkVFBd35vn373n33XSaTaWhoOGLEiNjYWHousYcOHbp9+3aE0PXr1ymKSk1NJVnYGPt6w/b169fd3d27du2qr68/cOBAscUENTU1a9eu7devH5vNNjIyev/993fv3k2WgIi5bdJucXHx6NGjORyOkZHRokWLyAMRhYWFFEUlJiZib1999ZWJiYm2tra1tXVISAi5ToMQevLkyfTp0/Veb9OnT6evXV2zZg398gwJTOqEBMVA+LSBkZX1N4ezGssFbe0fN21Krq8XtUEc0CQQAAJtTUDqAbqtg2r/7Z84ccLOzo686aj9d/jfPaypqenevXtSUtK/k1/tSZ2QoBgkQbVeikgk+uyzgxQVZGe3JS1N0HoNQ0tAAAioGAGpB2gVi7F9hhMeHk4un7TPHjbcq+zsbHyJRbKI1AkJikESVKumPH5cFRAQX1VV26qtQmNAAAioGAGpB2gVixHC6UAEpE5IUAytOgOqq2t9fU/Gxb15PWertg2NAQEgoMIEpB6gVTheCK2dE5A6IUExtN6o37ol6Ns3gqKCOnfeIBD8a5FO6wUBLQEBIKCSBKQeoFUyUgiqQxCQOiFBMbTG2NfXi0JDLzOZq/AiRzZ79fHjr15+DhsQAAJAABOQeoAGOECgrQhInZCgGJQ+HPfu/ePmtoc8P9m//7aMjEdKbxUaAAJAQK0ISD1Aq1UPINh2RUDqhATFoNwxjo3lGxuvJ3Jh2bIzNTWvvnECGxAAAkCATkDqAZpeAGwg0JoEpE5IUAzKGoKKCuHcuS9fnvrmTY5mZiHx8fnKagz8AgEgoOYEpB6g1bxPEL4aE5A6IUExKGtES0rKDQzWYsUwceIBsa9XK6tV8AsEgIB6EpB6gFbPrkDU7YGA1AkJikGJQ3vgwB0uN3jXrhv0t3UqsT1wDQSAgNoSkHqAVtveyArc0tIyLCxMVgnl5LVsu/gNzeSzEUlJSQ4ODgwGY/z48YmJiRRF0d/ErJwOKder1AkJiqEloRcXlz97VkP3CE9R0mmADQSAQEMEpB6gGyqs1HQej0e93rS0tLp37+7l5UW+1dQi7bbsmVsspGfPnn3zzTc2NjYsFsvExGTUqFExMTH4N1vLtltXVycQCMhnIwYPHjxjxozS0tKysjKhUCgQCNT9h6LUCQmKQWy+Kb772293DAzWzpx5RHEXUBMIAIGOSkDqAbpNYPB4PA8PD4FAUFpaeubMGXNz86lTp7ZgJC175qYHVlZW1rdvXwsLi927d2dkZGRnZ+/YsaNXr174577y2kUIGRsbR0VF0YNpki0UCptUvhUKS52QoBhagPyzZzWenrFkkSN8q7oFmIILINDBCEg9QLcJA7FvVy5dutTIyAhHUldXN2fOHCsrKzab3adPn/DwcBIhrrVx48Zu3boZGRn5+PjU1r55+f3Dhw/HjBnDZrOtrKz27t1LP3MXFxePGzeOy+Xq6elNnjz5wYMH2GFgYGD//v0jIyPxRyy9vLzq6urWr19vYmLSpUuX1atXk3bphre3N5fLvXfvHj2xoqICXwmgtxsSEuLg4KCjo2NhYeHt7U2+e1lUVDRmzJhOnTrp6OjY29ufOHECIfT06dNp06Z17tyZzWb37t0bKwNyVwIb+KoMRVHR0dFidyWSk5OHDx/OZrMtLCx8fX0rKytxeJaWlqtWreLxePr6+jNnzqTHrAq21AkJiqG5Q5OUVGxlFU7kwhdfHC4re95cp1AfCACBDkZA8gAdEnLZ3Dykof/Gjt1PJzR27P6GSpqbh4SEXKYXlm3TFUN+fr69vb2JiQmuUltbu3LlytTU1IKCgr179+ro6Bw8eBBn4TOfl5dXZmbm8ePHdXR0duzYgbM++eQTBweHy5cvX79+fdiwYRwOB69jEIlETk5OH3zwwfXr169evers7Ozi4oKrBAYG6urqTpo0KSMjIy4ujslkuru7+/r6ZmVlRUVFURR15coVXJL8W19fb2hoOH/+fJIiZtAVQ1hYWEJCQkFBwblz52xsbLy9vXHh0aNHu7m5paen5+fnHz9+/MKFCwihhQsXvvvuu9euXSssLIyPj4+Li0MIEcWAb0/o6+uHh4cLBILq6mq6YkhPT9fV1Q0LC8vJyUlOTnZycpo1axZuy9LSUl9ff+PGjbmvN7Fo23xXckIihEAxKD4utbV133+foKn5A5YL+vpr9+69rbg7qAkEgEAHJiB5gA4MfLmA7s3j2ZLG0KG76LSGDt0lWYakBAYm0gvLtnk8npaWFpfLZbPZ+KdzaGio1Co+Pj7/+c9/cBaPx7O0tKyrq8O7kydP/vzzzxFC2dnZFEVdvXoVp2dmZlIUhRXD2bNntbS0yHcjMzIyKIpKTU19WTIwMFBHR+eff/7Btdzd3a2srMg3qV8uU1i7di3OIv8+fPiQoqiGQkUI0RUDqYUQOnTokLGxMU7p169fUFAQPRchNHbs2NmzZ4slEsWA0w0MDKKjo7FNVwyenp50EXPp0iVNTc3nz1/9qrS0tJwwYYKYW9XZlZyQoBgUH53c3CdDhuwkf5Dvvx9ZWFimuDuoCQSAQMcmIHmAbsNrDK6urrm5ubdv3/b19XV3dyfr+xBC27ZtGzBgQOfOnblcrra29qBBg/C48Xi8Tz/9lIyhn5/fhx9+iBA6evQog8EgSgIh1KlTJ6wYfvrpJysrK1IFZ/3yyy8vUwIDA+3t7UnWzJkz6c5HjBixZMkSkouNBw8eEC0iloV36YohISHB1dXVzMxMV1cXCyN8s2Dnzp0MBmPYsGErV668ffvNL8CTJ09yOJz+/fsvX748OTkZe5NTMdjb2zOZTO7bTUdHh6IoPp+PFUNDt1ekxt/KiZITEhSDgkPA5z/icoOxXNDS+mHVqgsvXtQr6AuqAQEgAAQQknqAbhMw9LsSCKGRI0d+9913OJKDBw+y2eyIiIibN2/m5ubOnz+/f//+OEuslr+/P77FcOTIEQaDQS4P0BVDeHh4jx496H00MDDYs2fPyxS8joFkiTl3cXHx9/cnudiQ/65EUVERm81evHjxlStXsrOzIyMj6Q9DlpSUbNu2beLEidra2ps3b8bOHz16FB0dPX36dDabvWzZMvpdCVygoWsMtra2vr6++L4D+Revc6QrGLG+qMKu1AkJdyUUGRqRSOThsZeignr1+unq1VJFXEAdIAAEgACNgNQDNC2/9Uyx03NiYiKbzcbLCRctWvTRRx+RUEaNGtWoYsjKyqIoKiUlBdfCuzLuSly7du1lSQUUA0LIy8tLcuVjZWWl2MrHw4cP00XMqlUvvxEo5fUJAQEB/fr1I53Fxvbt2/X09ORXDNOmTaMTo3sDxUCnoYr2G30UZtr84ASCCn//UxUVKvdITPO7Bh6AABBofQIqqxgQQgMGDFi4cOHLywPh4eH6+vqnT5/Ozs7+7rvv9PX1G1UMCCEPDw9HR8erV69ev379gw8+EFv5OHz48Bs3bqSkpAwYMIC+8pF4fnl6FhMxUq8x4IcabG1tLSwsfvnll4yMjJycnMjIyN69e4s9XZmWlkZRVHh4eH5+/p49e8zNzYli8Pf3P336dEFBwY0bNwYPHjxlyhSE0Pfff3/06NHc3Ny7d++OGTNm8ODB8iuG27dvczgcHx+ftLS0nJycY8eOLVq0CM8uUAyt/1fWtBYVVgxCYd2KFWfhwxBNww2lgQAQkJuAKiuGffv2MZnMkpKSmpqaWbNmGRgYdOrUydvbOyAggJzXxU7q5K4EQkggEIwePZrFYr3zzjt79uyhnyllP11J4Ik5b0gxIITKy8sDAgKsra2ZTKaJiYmrq+uRI0ck3+AUGhpqamrK4XDc3d337Hn5beE31xgWLVrUq1cvFovVpUsXT0/Px48fI4RWrVplZ2fH4XCMjIzGjx9fUFAgv2JACKWmprq5uenq6nK5XEdHx+DgYNwvOgfSU9UxpE5IuCvR+ABlZv7t5LSdooLMzELg8xCN84ISQAAINJ2A1AN0091ADSDQMgSkTkhQDLLgikSibduucTir8SJHbe0f4+KyZFWAPCAABICAQgSkHqAV8gSVgEALEJA6IUExNEj24cPKsWP3k+cn7ey2pKUJGiwNGUAACACBZhCQeoBuhj+oCgSaRUDqhATFIJ3pqVO5JiYbiVzw8fmjqurNG0+lV4BUIAAEgEAzCEg9QDfDH1QFAs0iIHVCgmIQZ1pdXevnd5JohS5dNhw/ni1eCPaBABAAAi1KQOoBukVbAGdAoAkEpE5IUAziBPPynpC3M3366b4HDyrES8A+EAACQKClCeADdHV1dUs7Bn9AQBEC1dXVfD4fv9Ca1AfFQFD8z4iMvMlmr96yJUXdP3D+vy6BBQSAgGoTqK2t5fP55eXlqh0mRNdRCJSXl/P5fPIBUtxtUAyvONy79w99mYJIJCoqgo9EdJQ/DOgnEFAFAq8PO0W5ublVVVXPYQMCbUqgqqoqNze3qKhI7GczKAYUG8s3Nl7v5XVcFY4aEAMQAAIdloBQKMzKyuLDBgRUgEBWVhb+/gX977FDK4aKCuHcucfIIkdY4UifGWADASDQ+gTq6+vb9LclNA4E3hCgfzyM/CF0XMWQmvqXtfVmIhcmTjwA73Mk0wIMIAAEgAAQAAJiBFRXMURERFhZWbFYLGdn54sXL4rFjXfPnz/v7OzMYrF69Oixbds2qWXoibi3T0PM1qy5yGD8iOWCjk7wrl03xO7W0GuBDQSAABAAAkAACKioYjhw4IC2tvbOnTv5fL6/vz+Xyy0uLhYbrYKCAh0dHX9/fz6fv3PnTm1t7cOHD4uVEdvFvR3Wcza5tDBo0I6cnFffGoENCAABIAAEgAAQkEFARRXD4MGDvby8SNy2trYBAQFkFxsrVqywtbUliQsWLBg6dCjZlWrg3lJUAEUFaWr+8O2352pr66SWhEQgAASAABAAAkCATkAVFYNQKNTS0oqNjSWB+vn5jRgxguxiY/jw4X5+fiQxNjaWwWCIPTyKEKqpqXn2dispKaFebUssLNaeOnXnbTL8HwgAASAABIAAEGiEQGlpKUVRCrw1hCKn6hY37t27R1FUcnIy8RwcHNynTx+yiw1ra2vyoXGEUHJyMkVR9+/fFysWGBj4WiXAP0AACAABIAAEgEBzCeTn54udZxvdVbpiuHz5Mgli9erVNjY2ZBcb1tbWa9asIYlJSUkURQkE4p+XpF9jKC4upiiqpKSkER0F2S1HAGvS0tLSlnMJnhohAMwbAaSEbGCuBKiNuATmjQBSQja+Tl9W1uQ3HCpRMbTsXQkiKRBCCt+DoTsBu0kEgHmTcLVIYWDeIhib5ASYNwlXixQG5i2CsUlOFGauRMWAEBo8eLC3tzfpiZ2dndSVj3Z2dqSMl5eXnCsfnz17RmqBoWwCCs8wZQfWjv0D89YfXGAOzFufQOu3qPA8V65iwE9XRkZGvvw0y+LFi7lcblFR0ctljAEBAZ6enhgTfrpyyZIlfD4/MjJS/qcrQTG05jxTeIa1ZpDtrC1g3voDCsyBeesTaP0WFZ7nylUMCKGIiAhLS0smk+ns7HzhwgWMhsfjubi4EEznz593cnJiMplWVlbyvMGppqYmMDDw5b/EAxjKJgDMlU1Y0j8wl2Si7BRgrmzCkv6BuSQTZacozFzpikHZPQf/QAAIAAEgAASAQCsQAMXQCpChCSAABIAAEAACak8AFIPaDyF0AAgAASAABIBAKxAAxdAKkKEJIAAEgAAQAAJqTwAUg9oPIXQACAABIAAEgEArEFB1xaCMj2W3Ala1bqJR5jExMa6urp07d9bT0xs6dOjp06fVur+qEHyjzHY8VHoAAA01SURBVEmQSUlJWlpa/fv3JylgKEZAHuY1NTXffPPNO++8w2Qye/bsGRkZqVhbUAsTkIf53r17HR0dORxOt27dZs2a9fgxfJRY8elz4cKFMWPGmJqaUhR15MiRhhydP3/e2dmZxWL16NFD9uOKKq0YlPSx7IaoQTpCSB7m/v7+69evT01NzcnJ+frrr7W1tW/evAn0FCYgD3PsvLy8vGfPnh9//DEoBoVp44pyMh83btyQIUPi4+MLCwtTUlLoX8lpZgAdsLo8zC9duqSpqfnTTz8VFBRcunSpb9++EyZM6ICsWqrLJ0+e/Pbbb2NiYmQoBvxKJH9/fz6fv3PnTtmvRFJpxaCkj2W31GC0Sz/yMBfruL29/Q8//CCWCLvyE5Cf+eeff/7dd98FBgaCYpAfr9SS8jA/deqUgYHBkydPpHqAxKYSkIf5xo0be/bsSTxv3rzZwsKC7IKhMAEZimHFihW2trbE84IFC2S8dll1FYPyPktB0IAhRkBO5vRa9fX13bt3/+9//0tPBFt+AvIzj4qKGjhw4IsXL0AxyI9Xakk5mXt7e48aNeqrr74yMzOztrZetmxZdXW1VIeQ2CgBOZknJyczmcwTJ06IRKIHDx6MGDFiwYIFjTqHAo0SkKEYhg8f7ufnRzzExsYyGIza2lqSQjdUVzG07Mey6X0GuyECcjKnV9+wYYORkdHDhw/piWDLT0BO5jk5OV27ds3Ozn7pGRSD/HillpSTubu7O4vFGj16dEpKyokTJywtLWfPni3VISQ2SkBO5gih33//XVdXl8FgUBQ1bty4hk5djbYIBegEZCgGa2vr4OBgUjg5OZmiqPv375MUuqHqiqGlPpZN7zPYDRHAf9WNMifV9+/fr6OjEx8fT1LAaCoBeZjX1dUNHDiQrEgCxdBUyGLl5WGOEHJzc2Oz2eXl5bh6TEyMhoYGXGYQgynnrpzMMzIyTE1NN2zYcPv27dOnT/fr12/OnDlyNgHFZBCQrRjWrFlD6iYlJVEUJRAISArdUF3FIOdVrCZdUaH3HGxJAnIyxxUPHDjA4XD++OMPST+QIj8BeZiXlZVRFKX1dtPQ0MC7586dk78hKEkIyMMcITRz5sxevXqRWnw+n6KonJwckgKG/ATkZD5jxoxJkyYRt5cuXZLxe5cUA6NRAjIUQ5POoaqrGJT3sexG4XbkAvJ8oBwhtH//fjabLeNxnY7MsKl9b5R5fX39Hdrm7e1tY2Nz586dysrKprYF5TGBRpkjhH7++WcOh1NRUYGrHD16VFNTE64xKDyF5GH+2WefTZkyhTRx+fJliqLu3btHUsBQjIAMxbBixQo7Ozvi1svLSy1XPpIn/Vr8Y9kEDRiSBPATULKZ79+/n8FgRERECN5u5MqtpENIaZSAPMzpTuCuBJ2GYrY8zCsqKiwsLCZNmpSRkXHhwgVra+u5c+cq1hzUkvN4Hh0dzWAwtm7dmp+fn5SUNHDgwMGDBwM9hQlUVFSkvd4oigoNDU1LSysuLkYIBQQEeHp6Yrf46colS5bw+fzIyEg1frpSSR/LVph+B6nY6AfKXVxcqH9vPB6vg8BRUjcbZU5vFxQDnYbCtjzMMzMzXV1dORyOhYXF0qVL4QKDwrRxRXmYb9682d7ensPhmJqaTp8+/a+//mpmox25emJi4r8P1RQ+VvN4PBcXF0Lm/PnzTk5OTCbTysqKrJciuXRDpe9K0AMFGwgAASAABIAAEGhDAqAY2hA+NA0EgAAQAAJAQG0IgGJQm6GCQIEAEAACQAAItCEBUAxtCB+aBgJAAAgAASCgNgRAMajNUEGgQAAIAAEgAATakAAohjaED00DASAABIAAEFAbAqAY1GaoIFAgAASAABAAAm1IABRDG8KHpoEAEAACQAAIqA0BUAxqM1QQKBAAAkAACACBNiQAiqEN4UPTQKDFCERHRxsYGLSYu2Y7srS0DAsLk+oG3lkpFQskAgHVJwCKQfXHCCLsoAR4PJ7YG15zc3MbYtFSiiE6Opo02q1bt8mTJxcUFDTUqIz0R48eVVVV4QJiX8GpqKh4/PixjLryZ9Gj7dq165gxY+7evdto9ZZi1WhDUAAItDMCoBja2YBCd9oPAR6P5+Hh8fZrX6/+X1dX11D3WuosGB0dra+vLxAI7t+/n5CQYG1t7eDgIKPdhuKhp4spBnpWM216tNeuXfvwww8tLS2FQqFsty3FSnYrkAsE2h8BUAztb0yhR+2EAI/HGz9+vFhnQkJCHBwcdHR0LCwsvL29ybeY6WfBW7dujRw5UldXV09Pz9nZ+dq1a9hJcnLy8OHD2Wy2hYWFr6+v1I9l0/0ghPbu3UtRVFZWFkJo69atPXv21NbW7tOnz549e0hggYGB3bt3ZzKZpqamvr6+OJ3clbC0tCQXLSwtLV/mkrsSp0+fZrFYZWVlxJWvr++IESPwrgLRxsXFURSVnp6OPUhlJfZtnsDAQISQUChcvny5mZmZjo7O4MGDExMTSUhgAAEgQAiAYiAowAACqkVAqmIICwtLSEgoKCg4d+6cjY2Nt7c3Dpp+pu/bt++MGTMyMzNzcnIOHTp069YthFB6erqurm5YWFhOTk5ycrKTk9OsWbMkO0z3gxCKiYmhKOrOnTuxsbHa2toRERHZ2dkhISFaWloJCQkIod9//11fX//kyZPFxcUpKSk7duzAPoliePToEUVR0dHRAoHg0aNHL3OJYqirqzMxMdm1axeugnd//vlnxaItKyubOnUqRVGZmZnYoVRWQqEwPDwcX0cRCARYck2bNm3YsGEXL17My8vbuHEji8XKycnBTuBfIAAECAFQDAQFGEBAtQjweDwtLS3u223SpEli8R06dMjY2Bgn0s/0enp6u3fvFivs6ek5f/58knjp0iVNTc3nz5+TFEk/paWlQ4cOtbCwEAqFw4YNmzdvHik8efLkTz/9FCEUEhLSp0+f2tpakoUNohgQQmJ3JYhiQAj5+fl99NFHuMqZM2eYTObTp08RQvJHS1EUl8vV0dHBVzLGjRsnFgnebYgVQigvL09DQ+PevXuk4qhRo77++muyCwYQAAKYACgGmAlAQEUJ8Hg8V1fX3Lfb/fv3EUIJCQmurq5mZma6urpsNpuiKHxzga4YAgMDGQzGqFGj1q5dm5eXh7tnb2/PZDLfyo83p1g+ny/WebyWkJyDnZ2dU1NTEUKGhoZ0FRIeHt6jRw+EUElJSffu3S0sLObOnRsbG/vixQvsUE7FkJKSoqmpic/WM2fOnDBhQlOj1dPTy83NzczM3L59e69evTAl7EQeVgihQ4cOYdlB4DAYjClTpoiRgV0gAARAMcAcAAIqSkDyrkRRURGbzV68ePGVK1eys7MjIyMpisLrAOiKASGUnZ0dGhrq5ubGZDJjY2MRQra2tr6+vm/lx5v/Sy4SjI6Oxufg/Px8+kIHQ0PDX375hZAKCwvr2bMn3q2urj527Jivr2+3bt3ee+89fL1BTsWAELK2tg4JCamurtbT0zt8+DD2KX+09GdKg4KChg8fjj3Iz+rAgQNaWlpZWVl0OAKBgHQWDCAABDABUAwwE4CAihKQVAyHDx9mMBj19fU44lWrVjWkGEiXpk6dOnbsWITQtGnTyPV/kitpiCkPUkDyrsTo0aNJLjaysrIoirpx4wZCiK4YtLW1iRR4WZJ+VwLvOjs7Hzx40MDAgNwlUSzaZ8+e6evrY4Ukg9W+fft0dXVJ8NnZ2RRFXbx4kaSAAQSAgFQCoBikYoFEIND2BCQVQ1paGkVR4eHh+fn5e/bsMTc3l1QM1dXVCxcuTExMLCoqSkpK6tWr14oVKxBCt2/f5nA4Pj4+aWlpOTk5x44dW7RokWQnG1IMR44c0dbW3rZtW05ODl75iB8oiI6O3rVr1507d/Lz87/99lsOh4PftUBXDNbW1t7e3gKBAK9REFMMOTk5FEU5Ojp++eWXJB6Fo126dGm/fv1EIpEMVsnJyRRF/fnnn3///Td+acT06dOtrKxiYmIKCgpSU1PXrVt34sQJEgwYQAAIYAKgGGAmAAEVJSCpGBBCoaGhpqamHA7H3d19z549kopBKBROnToVP+5oZma2aNEi8sM9NTXVzc1NV1eXy+U6OjoGBwdL9rwhxdDQ05VHjhwZMmSIvr4+l8sdOnTon3/+iX3SFUNcXFzv3r0ZDIbY05Wk9UGDBlEUhR++IImKRVtcXMxgMA4ePCiDFULIy8vL2NiYoij8dGVtbe3KlSutrKy0tbW7des2ceJE8ogmiQcMIAAEQDHAHAACQAAIAAEgAAQaJwCKoXFGUAIIAAEgAASAABAAxQBzAAgAASAABIAAEGicACiGxhlBCSAABIAAEAACQAAUA8wBIAAEgAAQAAJAoHECoBgaZwQlgAAQAAJAAAgAAVAMMAeAABAAAkAACACBxgmAYmicEZQAAkAACAABIAAEQDHAHAACQAAIAAEgAAQaJwCKoXFGUAIIAAEgAASAABAAxQBzAAgAASAABIAAEGicwP8Dstd/jeQjSDAAAAAASUVORK5CYII=;" vertex="1" parent="1">
          <mxGeometry x="341.3" y="811" width="202.4" height="156.65" as="geometry" />
        </mxCell>
        <mxCell id="DTfyCFZ58FffVUjiNzRJ-40" value="&lt;p class=&quot;whitespace-pre-wrap break-words&quot;&gt;In imbalanced datasets, where the positive class is relatively rare, the ROC curve can give an overly optimistic view of the model&#39;s performance, as it is less sensitive to changes in the positive class distribution. The PR curve, on the other hand, is more sensitive to these changes and can provide a clearer picture of how well the model is performing on the minority (positive) class.&lt;/p&gt;&#xa;&lt;p class=&quot;whitespace-pre-wrap break-words&quot;&gt;So, for imbalanced data, the PR curve is generally considered the more appropriate and informative choice, as it &quot;cares about low FP compared to TP&quot; - in other words, it focuses on the model&#39;s precision, which is often the more critical metric when dealing with rare positive cases.&lt;/p&gt;" style="text;whiteSpace=wrap;html=1;" vertex="1" parent="1">
          <mxGeometry x="578.9999999999999" y="1107" width="550" height="185" as="geometry" />
        </mxCell>
        <mxCell id="DTfyCFZ58FffVUjiNzRJ-42" value="&lt;b&gt;&quot;Apple&quot;&lt;/b&gt;" style="text;html=1;align=center;verticalAlign=middle;resizable=0;points=[];autosize=1;strokeColor=none;fillColor=none;" vertex="1" parent="1">
          <mxGeometry x="618.5" y="508" width="63" height="26" as="geometry" />
        </mxCell>
        <mxCell id="DTfyCFZ58FffVUjiNzRJ-43" value="&lt;b&gt;&quot;Orange&quot;&lt;/b&gt;" style="text;html=1;align=center;verticalAlign=middle;resizable=0;points=[];autosize=1;strokeColor=none;fillColor=none;" vertex="1" parent="1">
          <mxGeometry x="808" y="511" width="71" height="26" as="geometry" />
        </mxCell>
      </root>
    </mxGraphModel>
  </diagram>
</mxfile>
